<svg xmlns="http://www.w3.org/2000/svg" xmlns:xlink="http://www.w3.org/1999/xlink" width="500" zoomAndPan="magnify" viewBox="0 0 375 374.999991" height="500" preserveAspectRatio="xMidYMid meet" version="1.0"><defs><g/><clipPath id="a741fe74a8"><path d="M 91.957031 90.875 L 293.707031 90.875 L 293.707031 192.875 L 91.957031 192.875 Z M 91.957031 90.875 " clip-rule="nonzero"/></clipPath><clipPath id="785fae093b"><path d="M 148 144.179688 L 238 144.179688 L 238 229.679688 L 148 229.679688 Z M 148 144.179688 " clip-rule="nonzero"/></clipPath><clipPath id="3b097fff3e"><path d="M 114.859375 204 L 118 204 L 118 208 L 114.859375 208 Z M 114.859375 204 " clip-rule="nonzero"/></clipPath><clipPath id="f212ec5d87"><path d="M 267 204 L 270.859375 204 L 270.859375 208 L 267 208 Z M 267 204 " clip-rule="nonzero"/></clipPath><clipPath id="cdb2a8a2df"><path d="M 91.957031 204 L 96.972656 204 L 96.972656 209.015625 L 91.957031 209.015625 Z M 91.957031 204 " clip-rule="nonzero"/></clipPath><clipPath id="9d6d4ab2b6"><path d="M 94.464844 204 C 93.078125 204 91.957031 205.121094 91.957031 206.507812 C 91.957031 207.894531 93.078125 209.015625 94.464844 209.015625 C 95.847656 209.015625 96.972656 207.894531 96.972656 206.507812 C 96.972656 205.121094 95.847656 204 94.464844 204 Z M 94.464844 204 " clip-rule="nonzero"/></clipPath><clipPath id="4514dca764"><path d="M 288.617188 204 L 293.632812 204 L 293.632812 209.015625 L 288.617188 209.015625 Z M 288.617188 204 " clip-rule="nonzero"/></clipPath><clipPath id="11533c0a10"><path d="M 291.125 204 C 289.738281 204 288.617188 205.121094 288.617188 206.507812 C 288.617188 207.894531 289.738281 209.015625 291.125 209.015625 C 292.507812 209.015625 293.632812 207.894531 293.632812 206.507812 C 293.632812 205.121094 292.507812 204 291.125 204 Z M 291.125 204 " clip-rule="nonzero"/></clipPath></defs><rect x="-37.5" width="450" fill="#ffffff" y="-37.499999" height="449.999989" fill-opacity="1"/><rect x="-37.5" width="450" fill="#ffc7ea" y="-37.499999" height="449.999989" fill-opacity="1"/><g clip-path="url(#a741fe74a8)"><path stroke-linecap="round" transform="matrix(0.0748572, 0, 0, 0.0751073, 91.955689, 90.893622)" fill="none" stroke-linejoin="round" d="M 9.98482 1347.56378 C 9.98482 608.828775 608.832997 9.997822 1347.582879 9.997822 C 2086.280578 9.997822 2685.128755 608.828775 2685.128755 1347.56378 " stroke="#2b2a29" stroke-width="20.030001" stroke-opacity="1" stroke-miterlimit="22.926001"/></g><g clip-path="url(#785fae093b)"><path fill="#000000" d="M 192.980469 229.519531 C 192.433594 229.488281 192.078125 229.472656 191.71875 229.449219 C 190.433594 229.367188 189.152344 229.273438 187.871094 229.203125 C 185.769531 229.085938 183.667969 229.035156 181.578125 228.851562 C 179.742188 228.691406 177.921875 228.402344 176.09375 228.144531 C 175.132812 228.015625 174.167969 227.871094 173.207031 227.660156 C 172.613281 227.503906 172.039062 227.296875 171.484375 227.039062 C 171.066406 226.851562 170.835938 226.53125 170.785156 226.078125 C 170.664062 225.4375 170.839844 224.636719 170.289062 224.210938 C 169.832031 223.855469 169.152344 223.796875 168.574219 223.589844 C 166.976562 223.035156 165.421875 222.375 163.910156 221.605469 C 161.257812 220.210938 159.15625 218.234375 157.605469 215.667969 C 156.273438 213.460938 155.25 211.121094 154.53125 208.644531 C 153.535156 205.300781 152.796875 201.902344 152.320312 198.445312 C 152.0625 196.722656 151.730469 195.015625 151.410156 193.316406 C 151.355469 193.121094 151.25 192.964844 151.089844 192.839844 C 150.921875 192.722656 150.746094 192.621094 150.554688 192.546875 C 150.058594 192.304688 149.648438 191.960938 149.328125 191.511719 C 149.007812 191.066406 148.8125 190.570312 148.742188 190.023438 C 148.609375 189.214844 148.515625 188.398438 148.421875 187.582031 C 148.386719 187.277344 148.386719 186.96875 148.421875 186.660156 C 148.570312 185.378906 149.0625 184.28125 150.308594 183.6875 C 151.042969 183.320312 151.796875 183.007812 152.574219 182.75 C 153.707031 182.414062 154.859375 182.191406 156.039062 182.082031 C 158.6875 181.800781 161.335938 181.546875 164 181.460938 C 164.5625 181.441406 165.121094 181.316406 165.679688 181.261719 C 166.039062 181.226562 166.175781 181.039062 166.285156 180.699219 C 166.722656 179.292969 167.65625 178.902344 168.988281 179.554688 C 169.390625 179.78125 169.773438 180.035156 170.136719 180.316406 C 170.648438 180.675781 170.746094 180.636719 170.90625 179.96875 C 170.988281 179.617188 171.050781 179.261719 171.140625 178.914062 C 171.230469 178.515625 171.347656 178.121094 171.492188 177.738281 C 171.628906 177.40625 171.804688 177.097656 172.027344 176.8125 C 172.09375 176.71875 172.171875 176.632812 172.261719 176.558594 C 172.351562 176.480469 172.449219 176.417969 172.550781 176.371094 C 172.65625 176.320312 172.765625 176.28125 172.882812 176.261719 C 172.996094 176.238281 173.109375 176.230469 173.226562 176.238281 C 173.34375 176.242188 173.457031 176.265625 173.566406 176.300781 C 173.675781 176.335938 173.78125 176.386719 173.878906 176.449219 C 173.976562 176.511719 174.066406 176.585938 174.148438 176.667969 C 174.226562 176.753906 174.292969 176.847656 174.347656 176.949219 C 174.800781 177.660156 174.933594 178.476562 175.058594 179.289062 C 175.113281 179.589844 175.089844 179.902344 175.113281 180.207031 C 175.148438 180.589844 175.324219 180.730469 175.722656 180.71875 C 176.75 180.683594 177.777344 180.636719 178.796875 180.609375 C 183.261719 180.484375 187.71875 180.324219 192.179688 180.257812 C 195.101562 180.214844 198.027344 180.234375 200.941406 180.484375 C 201.199219 180.503906 201.457031 180.484375 201.710938 180.511719 C 202.144531 180.550781 202.523438 180.429688 202.859375 180.160156 C 203.101562 179.96875 203.359375 179.800781 203.601562 179.609375 C 205.203125 178.328125 206.910156 177.1875 208.867188 176.488281 C 209.070312 176.433594 209.238281 176.328125 209.378906 176.171875 C 209.515625 176.015625 209.597656 175.832031 209.628906 175.625 C 209.773438 175.03125 209.960938 174.445312 210.1875 173.875 C 210.335938 173.519531 210.3125 173.175781 210.117188 172.84375 C 209.253906 171.375 209.441406 169.882812 210.070312 168.410156 C 210.488281 167.417969 210.992188 166.46875 211.464844 165.496094 C 212.726562 162.953125 213.921875 160.40625 215.203125 157.882812 C 216.414062 155.453125 217.667969 153.042969 218.925781 150.636719 C 219.332031 149.867188 219.792969 149.121094 220.269531 148.390625 C 220.765625 147.59375 221.40625 146.9375 222.195312 146.429688 C 222.789062 146.101562 223.246094 145.636719 223.566406 145.039062 C 223.90625 144.398438 224.582031 144.1875 225.292969 144.300781 C 225.699219 144.371094 226.085938 144.503906 226.449219 144.699219 C 227.457031 145.234375 227.828125 146.058594 227.433594 147.140625 C 227.238281 147.625 227.199219 148.121094 227.324219 148.632812 C 227.503906 149.34375 227.484375 150.054688 227.261719 150.757812 C 227.003906 151.640625 226.792969 152.542969 226.488281 153.40625 C 226.109375 154.46875 225.671875 155.511719 225.222656 156.546875 C 223.28125 161.011719 221.445312 165.523438 219.3125 169.902344 C 218.953125 170.640625 218.640625 171.40625 218.296875 172.148438 C 217.582031 173.667969 216.523438 174.78125 214.769531 175.035156 C 214.441406 175.082031 214.203125 175.253906 214.046875 175.546875 C 213.644531 176.1875 213.230469 176.828125 212.847656 177.511719 C 212.785156 177.699219 212.757812 177.894531 212.773438 178.09375 C 212.773438 178.148438 212.789062 178.195312 212.8125 178.242188 C 213.078125 179.070312 213.339844 179.894531 213.605469 180.71875 C 214.414062 181.148438 215.320312 180.84375 216.171875 181.058594 C 216.421875 181.113281 216.675781 181.144531 216.933594 181.152344 C 219.132812 181.289062 221.335938 181.398438 223.53125 181.5625 C 225.828125 181.738281 228.128906 181.929688 230.417969 182.203125 C 231.597656 182.324219 232.734375 182.605469 233.835938 183.046875 C 234.074219 183.148438 234.316406 183.238281 234.546875 183.339844 C 236.300781 184.074219 237.191406 185.347656 237.113281 187.289062 C 237.085938 188.257812 236.980469 189.222656 236.792969 190.175781 C 236.707031 190.660156 236.519531 191.105469 236.234375 191.507812 C 235.945312 191.910156 235.585938 192.234375 235.15625 192.472656 C 235.019531 192.546875 234.886719 192.625 234.746094 192.695312 C 234.28125 192.917969 234.136719 193.3125 234.054688 193.804688 C 233.53125 196.933594 233.011719 200.066406 232.433594 203.1875 C 231.949219 205.816406 231.238281 208.382812 230.292969 210.882812 C 229.75 212.320312 229.105469 213.710938 228.351562 215.050781 C 227.433594 216.703125 226.273438 218.160156 224.859375 219.417969 C 223.449219 220.675781 221.871094 221.664062 220.125 222.386719 C 218.945312 222.886719 217.726562 223.285156 216.523438 223.726562 C 216.203125 223.847656 215.835938 223.929688 215.496094 224.046875 C 215.34375 224.085938 215.214844 224.167969 215.117188 224.289062 C 215.015625 224.414062 214.960938 224.554688 214.949219 224.710938 C 214.917969 225.070312 214.898438 225.429688 214.886719 225.785156 C 214.886719 226.050781 214.816406 226.296875 214.675781 226.519531 C 214.535156 226.742188 214.34375 226.910156 214.101562 227.023438 C 213.558594 227.3125 212.984375 227.523438 212.382812 227.664062 C 210.976562 227.929688 209.554688 228.113281 208.136719 228.304688 C 207.273438 228.429688 206.402344 228.492188 205.550781 228.65625 C 204.433594 228.871094 203.304688 228.839844 202.183594 228.976562 C 199.984375 229.214844 197.78125 229.167969 195.582031 229.296875 C 194.632812 229.320312 193.722656 229.445312 192.980469 229.519531 Z M 209.058594 179.359375 C 208.84375 179.308594 208.738281 179.410156 208.691406 179.605469 C 208.453125 179.761719 208.226562 179.933594 208.003906 180.113281 C 207.921875 180.21875 207.886719 180.335938 207.894531 180.46875 C 207.894531 180.609375 208.257812 180.59375 208.402344 180.441406 C 208.644531 180.242188 208.765625 179.988281 208.761719 179.675781 C 208.84375 179.558594 208.933594 179.441406 209.019531 179.324219 C 209.0625 179.308594 209.105469 179.289062 209.144531 179.261719 C 209.164062 179.261719 209.144531 179.199219 209.164062 179.171875 Z M 201.363281 187.054688 C 201.175781 187.121094 201.023438 187.234375 200.90625 187.394531 C 200.789062 187.558594 200.726562 187.738281 200.722656 187.9375 C 199.761719 188.414062 199.386719 189.394531 198.769531 190.179688 C 198.75 190.222656 198.75 190.265625 198.769531 190.304688 C 198.851562 190.355469 198.957031 190.441406 199.03125 190.425781 C 199.214844 190.382812 199.472656 190.347656 199.558594 190.210938 C 200.027344 189.503906 200.570312 188.832031 200.738281 187.96875 C 201.175781 187.804688 201.257812 187.421875 201.320312 187.027344 L 201.425781 186.933594 Z M 208.433594 182.742188 C 208.285156 182.863281 208.078125 182.953125 207.988281 183.105469 C 206.722656 185.316406 205.46875 187.535156 204.222656 189.761719 C 204.167969 189.847656 204.144531 189.945312 204.144531 190.050781 C 204.144531 190.132812 204.203125 190.265625 204.269531 190.285156 C 205.148438 190.589844 205.679688 190.382812 205.976562 189.605469 C 206.757812 187.558594 207.53125 185.507812 208.296875 183.453125 C 208.355469 183.210938 208.390625 182.960938 208.398438 182.707031 C 208.429688 182.6875 208.460938 182.667969 208.492188 182.644531 C 208.511719 182.644531 208.515625 182.597656 208.527344 182.578125 Z M 192.605469 225.941406 C 195.972656 225.785156 199.152344 225.640625 202.328125 225.492188 C 202.582031 225.492188 202.835938 225.425781 203.089844 225.386719 C 204.660156 225.152344 206.21875 224.863281 207.796875 224.6875 C 210.039062 224.410156 212.246094 223.960938 214.417969 223.347656 C 217.042969 222.636719 219.605469 221.742188 221.960938 220.328125 C 223.292969 219.539062 224.46875 218.554688 225.484375 217.386719 C 227.265625 215.34375 228.4375 212.964844 229.394531 210.460938 C 230.546875 207.425781 231.25 204.277344 231.832031 201.101562 C 232.152344 199.289062 232.476562 197.46875 232.769531 195.652344 C 232.878906 195.011719 232.988281 194.339844 233.089844 193.683594 C 233.121094 193.457031 232.941406 193.316406 232.707031 193.363281 C 231.808594 193.554688 230.910156 193.78125 230.003906 193.945312 C 227.988281 194.308594 225.976562 194.710938 223.949219 194.976562 C 221.820312 195.253906 219.671875 195.410156 217.539062 195.589844 C 214.886719 195.808594 212.230469 196.0625 209.570312 196.179688 C 206.960938 196.304688 204.34375 196.351562 201.734375 196.503906 C 200.046875 196.609375 198.351562 196.566406 196.65625 196.609375 C 196.144531 196.621094 195.636719 196.660156 195.128906 196.726562 C 193.59375 196.9375 192.058594 196.9375 190.523438 196.726562 C 190.070312 196.660156 189.609375 196.625 189.148438 196.613281 C 186.433594 196.546875 183.71875 196.519531 181.003906 196.347656 C 178.191406 196.171875 175.367188 196.128906 172.558594 195.921875 C 171.023438 195.804688 169.488281 195.707031 167.957031 195.574219 C 166.121094 195.410156 164.289062 195.234375 162.457031 195.035156 C 161.285156 194.910156 160.113281 194.785156 158.953125 194.570312 C 156.941406 194.195312 154.9375 193.769531 152.9375 193.339844 C 152.542969 193.253906 152.394531 193.488281 152.464844 193.855469 C 152.742188 195.261719 153.054688 196.664062 153.269531 198.082031 C 153.746094 201.539062 154.476562 204.941406 155.464844 208.285156 C 156.214844 210.914062 157.320312 213.378906 158.78125 215.683594 C 160.21875 217.875 162.101562 219.578125 164.425781 220.789062 C 166.996094 222.09375 169.6875 223.0625 172.503906 223.691406 C 174.34375 224.136719 176.210938 224.453125 178.082031 224.757812 C 180.820312 225.242188 183.574219 225.527344 186.351562 225.605469 C 186.710938 225.605469 187.070312 225.625 187.425781 225.644531 Z M 191.878906 190.757812 L 191.878906 190.722656 C 192.597656 190.722656 193.316406 190.722656 194.035156 190.722656 C 194.378906 190.738281 194.628906 190.59375 194.792969 190.289062 C 195.042969 189.84375 195.304688 189.402344 195.574219 188.964844 C 196.722656 187.019531 198.035156 185.1875 199.511719 183.472656 C 200.054688 182.867188 200.597656 182.257812 201.140625 181.648438 C 200.382812 181.226562 199.554688 181.507812 198.765625 181.398438 C 198.261719 181.3125 197.75 181.261719 197.238281 181.242188 C 194.316406 181.242188 191.394531 181.210938 188.46875 181.242188 C 187.035156 181.242188 185.605469 181.398438 184.171875 181.4375 C 182.328125 181.492188 180.480469 181.488281 178.636719 181.542969 C 177.613281 181.578125 176.589844 181.683594 175.574219 181.789062 C 175.421875 181.789062 175.253906 182.003906 175.164062 182.15625 C 175.117188 182.304688 175.097656 182.453125 175.101562 182.609375 C 174.878906 184.078125 174.703125 185.554688 174.238281 186.976562 C 174.039062 187.589844 173.683594 187.773438 173.066406 187.582031 C 172.867188 187.527344 172.679688 187.453125 172.496094 187.355469 C 170.296875 186.136719 168.070312 184.941406 166.800781 182.605469 C 166.773438 182.558594 166.75 182.5 166.710938 182.480469 C 166.542969 182.382812 166.363281 182.3125 166.171875 182.273438 C 165.914062 182.28125 165.660156 182.304688 165.40625 182.34375 C 163.105469 182.484375 160.800781 182.578125 158.507812 182.769531 C 156.980469 182.898438 155.453125 183.117188 153.945312 183.390625 C 152.871094 183.570312 151.863281 183.933594 150.925781 184.480469 C 150.355469 184.824219 149.640625 185.164062 149.714844 185.921875 C 149.769531 186.5625 150.410156 186.910156 150.953125 187.207031 C 151.742188 187.601562 152.570312 187.851562 153.445312 187.957031 C 155.6875 188.28125 157.898438 188.621094 160.136719 188.851562 C 162.886719 189.144531 165.648438 189.335938 168.402344 189.570312 C 168.605469 189.570312 168.8125 189.59375 169.019531 189.613281 C 170.644531 189.773438 172.273438 190.015625 173.90625 190.082031 C 177.082031 190.210938 180.25 190.503906 183.433594 190.425781 C 184.460938 190.402344 185.484375 190.425781 186.511719 190.480469 C 188.300781 190.550781 190.089844 190.660156 191.878906 190.757812 Z M 214.203125 174.085938 C 214.699219 174.101562 215.167969 174 215.613281 173.78125 C 216.058594 173.5625 216.429688 173.25 216.71875 172.847656 C 217.027344 172.4375 217.285156 171.996094 217.496094 171.53125 C 219.214844 167.683594 221.085938 163.933594 222.664062 160.042969 C 223.625 157.671875 224.675781 155.332031 225.617188 152.953125 C 225.925781 152.03125 226.1875 151.097656 226.402344 150.152344 C 226.492188 149.746094 226.492188 149.339844 226.402344 148.9375 C 226.320312 148.398438 226.21875 147.972656 225.550781 147.847656 C 225.089844 147.757812 224.671875 147.566406 224.300781 147.28125 C 223.492188 146.660156 222.855469 147.007812 222.25 147.554688 C 221.867188 147.890625 221.527344 148.273438 221.242188 148.699219 C 220.578125 149.734375 219.910156 150.769531 219.347656 151.859375 C 216.691406 156.988281 214.046875 162.148438 211.652344 167.417969 C 211.355469 168.0625 211.046875 168.71875 210.777344 169.386719 C 210.410156 170.175781 210.394531 170.972656 210.730469 171.78125 C 211.4375 173.308594 212.488281 174.140625 214.203125 174.085938 Z M 214.792969 189.796875 C 216.714844 189.613281 218.640625 189.398438 220.5625 189.253906 C 224.34375 188.96875 228.105469 188.546875 231.851562 187.972656 C 232.460938 187.878906 233.0625 187.75 233.652344 187.578125 C 234.359375 187.386719 234.980469 187.042969 235.515625 186.546875 C 235.609375 186.460938 235.6875 186.359375 235.742188 186.242188 C 235.800781 186.125 235.832031 186 235.835938 185.871094 C 235.84375 185.742188 235.824219 185.617188 235.78125 185.496094 C 235.734375 185.375 235.667969 185.265625 235.582031 185.167969 C 235.109375 184.683594 234.554688 184.324219 233.917969 184.09375 C 232.636719 183.542969 231.300781 183.203125 229.914062 183.074219 C 227.472656 182.804688 225.019531 182.613281 222.570312 182.433594 C 220.222656 182.261719 217.871094 182.152344 215.519531 182.015625 C 215.367188 182.011719 215.214844 181.996094 215.0625 181.96875 C 213.492188 181.609375 213.613281 182.070312 213.746094 183.253906 C 213.972656 184.890625 213.957031 186.523438 213.703125 188.15625 C 213.644531 188.5625 213.621094 188.96875 213.632812 189.378906 C 213.621094 189.488281 213.648438 189.582031 213.71875 189.664062 C 213.792969 189.742188 213.882812 189.785156 213.992188 189.785156 C 214.257812 189.832031 214.511719 189.816406 214.792969 189.816406 Z M 192.605469 228.453125 L 203.296875 227.972656 C 203.449219 227.964844 203.605469 227.953125 203.757812 227.929688 C 206.003906 227.640625 208.226562 227.371094 210.453125 227.035156 C 211.378906 226.949219 212.277344 226.746094 213.148438 226.429688 C 213.394531 226.339844 213.59375 226.183594 213.738281 225.964844 C 213.886719 225.746094 213.953125 225.503906 213.941406 225.238281 C 213.941406 224.75 213.769531 224.515625 213.332031 224.625 C 211.488281 225.078125 209.628906 225.433594 207.753906 225.691406 C 206.128906 225.925781 204.519531 226.246094 202.890625 226.378906 C 200.589844 226.570312 198.28125 226.621094 195.980469 226.742188 C 195.210938 226.75 194.449219 226.820312 193.6875 226.949219 C 193.078125 227.03125 192.464844 227.03125 191.855469 226.949219 C 191.296875 226.914062 190.742188 226.800781 190.183594 226.765625 C 187.726562 226.636719 185.265625 226.523438 182.808594 226.402344 C 182.550781 226.394531 182.296875 226.367188 182.042969 226.332031 C 178.8125 225.804688 175.546875 225.464844 172.363281 224.652344 C 171.890625 224.53125 171.683594 224.710938 171.699219 225.191406 C 171.71875 226.019531 171.832031 226.21875 172.535156 226.472656 C 172.917969 226.617188 173.316406 226.722656 173.71875 226.792969 C 175.324219 227.039062 176.96875 227.234375 178.582031 227.5 C 180.605469 227.84375 182.644531 228.039062 184.695312 228.082031 C 185.054688 228.082031 185.414062 228.097656 185.773438 228.113281 Z M 174.195312 181.007812 C 174.257812 180.085938 174.164062 179.175781 173.910156 178.285156 C 173.785156 177.953125 173.613281 177.648438 173.394531 177.371094 C 173.269531 177.285156 173.136719 177.273438 173 177.339844 C 172.757812 177.53125 172.574219 177.769531 172.449219 178.050781 C 172.074219 179.214844 171.683594 180.382812 171.9375 181.644531 C 171.984375 181.792969 171.992188 181.941406 171.960938 182.09375 C 171.894531 182.28125 171.789062 182.441406 171.640625 182.578125 C 171.550781 182.636719 171.453125 182.65625 171.34375 182.636719 C 171.238281 182.617188 171.152344 182.566406 171.089844 182.480469 C 170.714844 182.132812 170.367188 181.753906 169.988281 181.414062 C 169.480469 180.898438 168.882812 180.511719 168.199219 180.265625 C 168.101562 180.234375 168 180.226562 167.898438 180.246094 C 167.792969 180.265625 167.703125 180.304688 167.617188 180.371094 C 167.535156 180.433594 167.472656 180.511719 167.429688 180.609375 C 167.386719 180.703125 167.367188 180.800781 167.371094 180.90625 C 167.382812 181.707031 167.65625 182.40625 168.191406 183.003906 C 169.441406 184.546875 171.101562 185.546875 172.835938 186.4375 C 172.960938 186.488281 173.085938 186.488281 173.210938 186.433594 C 173.335938 186.382812 173.425781 186.292969 173.476562 186.167969 C 173.523438 186.074219 173.558594 185.980469 173.589844 185.882812 C 173.96875 184.277344 174.171875 182.652344 174.195312 181.003906 Z M 196.117188 190.664062 C 196.722656 190.566406 197.265625 190.582031 197.671875 190.042969 C 198.929688 188.359375 200.234375 186.707031 201.515625 185.0625 C 202.28125 184.097656 203.074219 183.160156 203.847656 182.203125 C 203.988281 182.027344 204.3125 181.878906 204.117188 181.605469 C 204.03125 181.488281 203.742188 181.511719 203.539062 181.484375 C 202.980469 181.398438 202.578125 181.65625 202.183594 182.035156 C 199.976562 184.199219 198.082031 186.613281 196.503906 189.273438 C 196.289062 189.621094 196.09375 189.980469 195.917969 190.347656 C 195.898438 190.40625 196.054688 190.554688 196.117188 190.65625 Z M 201.515625 190.417969 C 201.800781 190.417969 201.90625 190.417969 202.003906 190.417969 C 202.214844 190.449219 202.410156 190.417969 202.601562 190.320312 C 202.789062 190.222656 202.929688 190.078125 203.019531 189.886719 C 203.113281 189.710938 203.246094 189.550781 203.339844 189.371094 C 204.230469 187.824219 205.121094 186.277344 206.003906 184.722656 C 206.484375 183.882812 206.949219 183.035156 207.40625 182.179688 C 207.46875 182.058594 207.488281 181.808594 207.425781 181.753906 C 207.265625 181.632812 207.085938 181.578125 206.882812 181.589844 C 206.679688 181.625 206.503906 181.714844 206.359375 181.863281 C 206.136719 182.074219 205.9375 182.304688 205.757812 182.554688 C 204.035156 184.835938 202.457031 187.214844 201.015625 189.6875 C 200.933594 189.816406 200.875 189.953125 200.835938 190.101562 C 200.832031 190.195312 200.871094 190.273438 200.949219 190.328125 C 201.136719 190.367188 201.328125 190.394531 201.515625 190.410156 Z M 205.65625 193.429688 L 205.734375 193.429688 C 205.734375 192.917969 205.734375 192.410156 205.734375 191.894531 C 205.734375 191.527344 205.550781 191.347656 205.167969 191.335938 C 204.863281 191.335938 204.554688 191.335938 204.25 191.335938 C 203.640625 191.367188 203.039062 191.414062 202.433594 191.460938 C 202.019531 191.996094 202.242188 192.632812 202.152344 193.222656 C 202.0625 193.8125 202.054688 194.339844 202.03125 194.902344 C 202.03125 195.222656 202.195312 195.429688 202.460938 195.425781 C 203.378906 195.40625 204.300781 195.378906 205.21875 195.339844 C 205.351562 195.324219 205.460938 195.265625 205.542969 195.160156 C 205.628906 195.058594 205.664062 194.9375 205.652344 194.804688 C 205.664062 194.34375 205.65625 193.882812 205.65625 193.421875 Z M 194.910156 193.75 C 194.910156 193.875 194.910156 194.070312 194.910156 194.285156 C 194.910156 195.753906 194.863281 195.78125 196.3125 195.691406 C 196.921875 195.652344 197.542969 195.8125 198.128906 195.542969 C 198.449219 194.902344 198.207031 194.261719 198.207031 193.621094 C 198.1875 193.109375 198.140625 192.597656 198.054688 192.09375 C 198.046875 191.960938 197.996094 191.847656 197.894531 191.753906 C 197.796875 191.664062 197.679688 191.621094 197.546875 191.621094 C 197.339844 191.621094 197.136719 191.621094 196.929688 191.621094 C 194.460938 191.683594 194.949219 191.34375 194.910156 193.730469 Z M 230.039062 189.960938 C 230.039062 189.769531 230.058594 189.636719 230.007812 189.574219 C 229.960938 189.511719 229.792969 189.304688 229.6875 189.316406 C 228.835938 189.394531 227.980469 189.503906 227.125 189.636719 C 226.992188 189.648438 226.878906 189.703125 226.785156 189.800781 C 226.695312 189.902344 226.648438 190.015625 226.648438 190.152344 C 226.648438 191.113281 226.648438 192.074219 226.675781 193.035156 C 226.675781 193.386719 226.925781 193.570312 227.300781 193.507812 C 227.800781 193.429688 228.292969 193.296875 228.792969 193.230469 C 228.980469 193.21875 229.140625 193.148438 229.273438 193.027344 C 229.410156 192.902344 229.492188 192.746094 229.523438 192.566406 C 229.722656 191.652344 229.882812 190.757812 230.039062 189.941406 Z M 210.570312 182.734375 C 210.59375 182.542969 210.59375 182.355469 210.570312 182.167969 C 210.511719 182.042969 210.417969 181.878906 210.3125 181.84375 C 210.164062 181.84375 210.03125 181.886719 209.917969 181.984375 C 209.839844 182.054688 209.785156 182.140625 209.757812 182.238281 C 208.832031 184.726562 207.910156 187.207031 206.984375 189.691406 C 206.953125 189.78125 206.902344 189.90625 206.9375 189.980469 C 206.972656 190.054688 207.109375 190.265625 207.214844 190.277344 C 207.464844 190.300781 207.71875 190.214844 207.972656 190.226562 C 208.539062 190.246094 208.804688 189.933594 208.933594 189.441406 C 209.292969 188.113281 209.675781 186.792969 210.007812 185.457031 C 210.238281 184.460938 210.417969 183.457031 210.570312 182.71875 Z M 188.109375 193.816406 C 188.019531 195.972656 187.828125 195.613281 189.933594 195.71875 C 190.132812 195.71875 190.339844 195.71875 190.542969 195.71875 C 190.925781 195.71875 191.128906 195.53125 191.105469 195.15625 C 191.046875 194.136719 190.96875 193.117188 190.878906 192.101562 C 190.867188 191.964844 190.808594 191.855469 190.703125 191.769531 C 190.601562 191.683594 190.484375 191.648438 190.347656 191.660156 C 189.988281 191.632812 189.632812 191.617188 189.273438 191.609375 C 188.25 191.589844 188.21875 191.609375 188.167969 192.570312 C 188.144531 192.980469 188.125 193.390625 188.109375 193.800781 Z M 218.929688 192.535156 C 218.929688 191.972656 218.929688 191.40625 218.929688 190.847656 C 218.925781 190.738281 218.882812 190.648438 218.804688 190.574219 C 218.726562 190.5 218.632812 190.464844 218.527344 190.46875 C 217.90625 190.40625 217.300781 190.476562 216.710938 190.6875 C 216.585938 190.734375 216.421875 190.875 216.410156 190.988281 C 216.296875 192.054688 216.199219 193.128906 216.121094 194.195312 C 216.09375 194.535156 216.347656 194.722656 216.726562 194.691406 C 216.882812 194.679688 217.03125 194.664062 217.183594 194.636719 C 217.730469 194.535156 218.277344 194.425781 218.820312 194.316406 C 219.175781 193.75 218.90625 193.125 218.929688 192.53125 Z M 209.433594 193.671875 L 209.382812 193.671875 C 209.359375 193.316406 209.34375 192.960938 209.296875 192.605469 C 209.140625 191.300781 209.0625 191.242188 207.804688 191.28125 L 207.484375 191.28125 C 206.96875 191.316406 206.84375 191.40625 206.78125 191.886719 C 206.699219 192.644531 206.644531 193.40625 206.617188 194.167969 C 206.574219 195.324219 206.59375 195.347656 207.8125 195.296875 C 208.355469 195.273438 208.941406 195.425781 209.417969 195.015625 Z M 220.011719 192.261719 L 220.011719 192.871094 C 220.011719 194.375 219.960938 194.527344 221.476562 194.214844 C 221.773438 194.15625 222.085938 194.179688 222.386719 194.144531 C 222.765625 194.101562 222.953125 193.910156 222.910156 193.554688 C 222.785156 192.589844 222.644531 191.628906 222.484375 190.691406 C 222.410156 190.285156 222.160156 190.132812 221.699219 190.144531 C 221.546875 190.140625 221.394531 190.148438 221.242188 190.167969 C 220.046875 190.410156 219.757812 190.257812 219.988281 191.652344 C 220.015625 191.855469 220.019531 192.058594 220.011719 192.261719 Z M 171.75 193.1875 C 171.691406 192.726562 171.621094 191.960938 171.492188 191.207031 C 171.4375 191.003906 171.308594 190.871094 171.109375 190.808594 C 168.710938 190.609375 168.894531 190.335938 168.941406 192.546875 C 168.941406 192.597656 168.941406 192.648438 168.941406 192.699219 C 169.054688 195.070312 168.621094 194.671875 171.183594 194.796875 C 171.234375 194.800781 171.289062 194.800781 171.339844 194.796875 C 171.445312 194.792969 171.535156 194.757812 171.613281 194.6875 C 171.691406 194.617188 171.734375 194.527344 171.75 194.425781 C 171.753906 194.109375 171.734375 193.800781 171.734375 193.1875 Z M 177.882812 193.265625 L 177.855469 193.265625 C 177.855469 192.75 177.855469 192.238281 177.855469 191.726562 C 177.859375 191.617188 177.828125 191.523438 177.757812 191.445312 C 177.683594 191.363281 177.597656 191.320312 177.492188 191.308594 C 176.984375 191.230469 176.472656 191.171875 175.964844 191.117188 C 175.617188 191.078125 175.417969 191.257812 175.382812 191.660156 C 175.3125 192.53125 175.253906 193.402344 175.21875 194.269531 C 175.183594 195 175.234375 195.035156 175.949219 195.144531 C 177.871094 195.4375 177.871094 195.4375 177.886719 193.417969 Z M 212.992188 185.949219 C 212.902344 184.703125 212.820312 183.53125 212.734375 182.363281 C 212.730469 182.261719 212.699219 182.167969 212.644531 182.078125 C 212.589844 181.996094 212.511719 181.945312 212.417969 181.917969 C 212.316406 181.917969 212.238281 181.960938 212.183594 182.042969 C 212.121094 182.234375 212.078125 182.429688 212.058594 182.628906 C 211.882812 183.988281 211.738281 185.359375 211.535156 186.71875 C 211.382812 187.726562 211.160156 188.71875 210.996094 189.722656 C 211.015625 189.867188 211.089844 189.976562 211.222656 190.042969 C 211.421875 190.09375 211.625 190.105469 211.828125 190.082031 C 212.367188 190.042969 212.601562 189.855469 212.652344 189.367188 C 212.78125 188.191406 212.882812 187.027344 212.992188 185.949219 Z M 233.632812 191.203125 C 233.550781 190.722656 233.429688 189.921875 233.273438 189.113281 C 233.195312 188.972656 233.078125 188.894531 232.921875 188.871094 C 231.558594 188.789062 231.203125 189.066406 230.925781 190.382812 C 230.894531 190.53125 230.890625 190.703125 230.855469 190.839844 C 230.273438 193.292969 230.511719 192.875 232.546875 192.390625 C 232.746094 192.339844 232.949219 192.300781 233.140625 192.234375 C 233.476562 192.117188 233.625 191.882812 233.632812 191.195312 Z M 181.699219 193.351562 L 181.726562 193.351562 C 181.726562 193.808594 181.726562 194.265625 181.726562 194.71875 C 181.746094 195.269531 181.894531 195.40625 182.476562 195.433594 C 182.796875 195.433594 183.085938 195.433594 183.386719 195.433594 C 183.515625 195.433594 183.628906 195.390625 183.726562 195.296875 C 183.820312 195.207031 183.871094 195.09375 183.875 194.964844 C 184.054688 193.957031 184.070312 192.949219 183.925781 191.9375 C 183.871094 191.5625 183.6875 191.382812 183.335938 191.371094 C 181.453125 191.328125 181.609375 191.175781 181.695312 192.894531 C 181.691406 193.035156 181.6875 193.191406 181.6875 193.339844 Z M 184.953125 193.457031 C 184.953125 194.019531 184.953125 194.582031 184.953125 195.144531 C 184.960938 195.273438 185.015625 195.386719 185.109375 195.476562 C 185.203125 195.570312 185.316406 195.617188 185.449219 195.621094 C 185.652344 195.640625 185.855469 195.644531 186.0625 195.648438 C 186.933594 195.648438 187.070312 195.554688 187.128906 194.738281 C 187.1875 193.921875 187.226562 193.105469 187.238281 192.289062 C 187.238281 191.550781 187.113281 191.425781 186.339844 191.398438 L 186.015625 191.398438 C 184.996094 191.398438 184.957031 191.425781 184.949219 192.390625 C 184.9375 192.730469 184.941406 193.089844 184.941406 193.445312 Z M 161.921875 192.359375 C 161.902344 192.054688 161.898438 191.746094 161.859375 191.441406 C 161.648438 189.675781 161.589844 189.871094 159.953125 189.789062 C 159.898438 189.78125 159.847656 189.789062 159.804688 189.820312 C 159.707031 189.921875 159.53125 190.039062 159.542969 190.140625 C 159.625 191.160156 159.730469 192.179688 159.863281 193.195312 C 159.914062 193.605469 160.105469 193.757812 160.585938 193.835938 C 160.789062 193.875 160.992188 193.890625 161.195312 193.925781 C 162.046875 194.070312 162.042969 194.070312 161.976562 193.285156 C 161.957031 193 161.941406 192.679688 161.921875 192.359375 Z M 164.933594 192.359375 C 164.933594 192.15625 164.933594 191.949219 164.933594 191.746094 C 164.960938 190.121094 164.851562 190.117188 163.152344 190.144531 C 163.042969 190.140625 162.953125 190.175781 162.878906 190.253906 C 162.804688 190.332031 162.769531 190.425781 162.78125 190.53125 C 162.816406 191.550781 162.863281 192.570312 162.914062 193.585938 C 162.933594 194.003906 163.039062 194.113281 163.449219 194.164062 C 163.800781 194.207031 164.15625 194.257812 164.515625 194.265625 C 164.621094 194.273438 164.714844 194.238281 164.792969 194.164062 C 164.875 194.089844 164.914062 194 164.914062 193.894531 C 164.941406 193.378906 164.933594 192.871094 164.933594 192.359375 Z M 192.042969 193.757812 L 192.089844 193.757812 C 192.089844 194.320312 192.089844 194.882812 192.089844 195.449219 C 192.109375 195.605469 192.1875 195.726562 192.328125 195.804688 C 192.773438 195.984375 193.21875 195.984375 193.667969 195.804688 C 193.835938 195.683594 193.925781 195.515625 193.933594 195.304688 C 193.964844 194.539062 193.953125 193.769531 193.953125 193 C 193.953125 191.601562 193.863281 191.71875 192.535156 191.71875 C 192.484375 191.714844 192.433594 191.714844 192.382812 191.71875 C 192.21875 191.730469 192.085938 191.800781 191.984375 191.925781 C 191.882812 192.054688 191.847656 192.199219 191.875 192.359375 C 191.925781 192.847656 191.988281 193.304688 192.042969 193.761719 Z M 199.136719 193.230469 L 199.195312 193.230469 C 199.195312 193.742188 199.164062 194.25 199.195312 194.753906 C 199.246094 195.394531 199.535156 195.625 200.199219 195.625 C 200.351562 195.625 200.503906 195.613281 200.65625 195.589844 C 200.757812 195.574219 200.847656 195.53125 200.917969 195.453125 C 200.988281 195.378906 201.027344 195.285156 201.03125 195.179688 C 201.105469 194.167969 201.171875 193.160156 201.234375 192.144531 C 201.25 192.042969 201.234375 191.941406 201.191406 191.847656 C 201.085938 191.691406 200.960938 191.453125 200.816406 191.433594 C 200.273438 191.363281 199.710938 191.234375 199.210938 191.582031 C 199.191406 191.980469 199.160156 192.375 199.136719 192.777344 C 199.128906 192.929688 199.136719 193.085938 199.136719 193.234375 Z M 167.992188 192.777344 C 167.945312 192.21875 167.910156 191.660156 167.855469 191.105469 C 167.8125 190.621094 167.675781 190.464844 167.199219 190.445312 C 165.972656 190.363281 165.863281 190.300781 165.890625 191.585938 C 165.90625 192.398438 165.90625 193.210938 165.941406 194.019531 C 165.964844 194.175781 166.046875 194.289062 166.1875 194.355469 C 166.730469 194.464844 167.34375 194.679688 167.820312 194.355469 C 168.238281 194.089844 167.945312 193.507812 167.992188 193.074219 C 168 192.980469 167.992188 192.878906 167.992188 192.78125 Z M 212.28125 192.980469 L 212.316406 192.980469 C 212.316406 192.519531 212.316406 192.0625 212.316406 191.605469 C 212.316406 191.203125 212.144531 191.03125 211.785156 191.019531 C 210.109375 190.964844 210.101562 190.976562 210.230469 192.625 C 210.246094 192.828125 210.230469 193.03125 210.273438 193.230469 C 210.328125 193.683594 210.386719 194.140625 210.472656 194.585938 C 210.542969 194.957031 210.714844 195.066406 211.113281 195.0625 C 211.265625 195.0625 211.417969 195.0625 211.570312 195.035156 C 211.953125 195 212.152344 194.832031 212.175781 194.492188 C 212.234375 194 212.253906 193.488281 212.28125 192.980469 Z M 225.71875 191.789062 L 225.699219 191.789062 C 225.699219 191.535156 225.699219 191.28125 225.699219 191.027344 C 225.699219 189.769531 225.621094 189.746094 224.398438 189.875 C 224.25 189.902344 224.101562 189.941406 223.957031 189.988281 C 223.585938 190.085938 223.429688 190.265625 223.476562 190.628906 C 223.605469 191.589844 223.753906 192.535156 223.902344 193.488281 C 223.929688 193.617188 224 193.722656 224.109375 193.796875 C 224.21875 193.871094 224.339844 193.898438 224.46875 193.878906 C 225.667969 193.839844 225.734375 193.761719 225.71875 192.703125 C 225.714844 192.402344 225.71875 192.097656 225.71875 191.792969 Z M 213.277344 192.945312 L 213.242188 192.945312 C 213.242188 193.457031 213.222656 193.964844 213.242188 194.476562 C 213.242188 194.675781 213.347656 194.878906 213.609375 194.867188 C 213.871094 194.855469 214.222656 194.828125 214.523438 194.792969 C 214.914062 194.75 215.082031 194.601562 215.117188 194.222656 C 215.207031 193.261719 215.28125 192.300781 215.351562 191.335938 C 215.371094 191.175781 215.324219 191.035156 215.207031 190.917969 C 215.089844 190.800781 214.953125 190.753906 214.789062 190.769531 C 214.535156 190.765625 214.28125 190.78125 214.027344 190.808594 C 213.488281 190.871094 213.292969 191.066406 213.273438 191.582031 C 213.277344 192.039062 213.277344 192.488281 213.277344 192.945312 Z M 180.75 193.523438 L 180.707031 193.523438 C 180.707031 193.117188 180.726562 192.710938 180.707031 192.304688 C 180.65625 191.410156 180.511719 191.289062 179.582031 191.304688 C 179.484375 191.304688 179.382812 191.304688 179.28125 191.324219 C 179.148438 191.332031 179.039062 191.382812 178.949219 191.480469 C 178.859375 191.578125 178.816406 191.691406 178.820312 191.824219 C 178.820312 192.839844 178.820312 193.851562 178.820312 194.863281 C 178.816406 194.96875 178.84375 195.066406 178.914062 195.148438 C 178.980469 195.230469 179.066406 195.277344 179.171875 195.292969 C 180.757812 195.441406 180.777344 195.484375 180.746094 193.980469 C 180.761719 193.828125 180.761719 193.675781 180.761719 193.523438 Z M 151.789062 191.078125 C 151.769531 190.839844 151.757812 190.53125 151.71875 190.230469 C 151.519531 188.574219 151.46875 188.496094 149.957031 187.71875 C 149.820312 187.667969 149.683594 187.667969 149.550781 187.71875 C 149.5 187.71875 149.457031 187.890625 149.464844 187.976562 C 149.574219 188.78125 149.570312 189.601562 149.859375 190.378906 C 149.996094 190.742188 150.207031 191.054688 150.496094 191.3125 C 150.785156 191.570312 151.117188 191.746094 151.492188 191.835938 C 151.558594 191.859375 151.734375 191.695312 151.777344 191.585938 C 151.808594 191.417969 151.8125 191.25 151.789062 191.078125 Z M 172.667969 192.910156 L 172.640625 192.910156 C 172.667969 193.464844 172.671875 194.027344 172.742188 194.582031 C 172.804688 194.777344 172.929688 194.90625 173.128906 194.964844 C 174.074219 195.121094 174.253906 195.015625 174.257812 194.109375 C 174.257812 193.394531 174.300781 192.683594 174.308594 191.972656 C 174.320312 191.769531 174.300781 191.566406 174.246094 191.371094 C 174.195312 191.222656 174.097656 191.121094 173.953125 191.066406 C 173.605469 191.007812 173.25 190.984375 172.898438 191 C 172.789062 190.992188 172.695312 191.027344 172.617188 191.109375 C 172.542969 191.1875 172.507812 191.28125 172.519531 191.390625 C 172.566406 191.910156 172.617188 192.410156 172.667969 192.917969 Z M 157.351562 191.25 C 157.382812 191.84375 157.386719 192.410156 157.457031 192.96875 C 157.476562 193.125 157.671875 193.289062 157.828125 193.390625 C 157.972656 193.453125 158.121094 193.484375 158.273438 193.480469 C 158.679688 193.515625 158.894531 193.355469 158.859375 192.988281 C 158.757812 191.96875 158.632812 190.953125 158.503906 189.9375 C 158.46875 189.65625 158.148438 189.496094 157.777344 189.523438 C 157.511719 189.542969 157.359375 189.726562 157.351562 190.050781 C 157.347656 190.46875 157.351562 190.878906 157.351562 191.261719 Z M 154.253906 190.929688 L 154.21875 190.929688 C 154.21875 190.574219 154.21875 190.21875 154.21875 189.863281 C 154.191406 189.136719 154.0625 188.996094 153.339844 188.886719 C 153.1875 188.867188 153.035156 188.855469 152.882812 188.851562 C 152.78125 188.851562 152.695312 188.890625 152.628906 188.96875 C 152.566406 189.046875 152.542969 189.136719 152.5625 189.238281 C 152.679688 190.09375 152.804688 190.949219 152.933594 191.800781 C 152.960938 191.953125 153.011719 192.09375 153.085938 192.230469 C 153.199219 192.449219 153.859375 192.675781 154.046875 192.523438 C 154.179688 192.375 154.253906 192.199219 154.261719 191.996094 C 154.292969 191.65625 154.253906 191.296875 154.253906 190.941406 Z M 236.117188 188.511719 C 236.148438 187.726562 235.9375 187.574219 235.566406 187.792969 C 234.214844 188.589844 234.097656 188.113281 234.410156 189.984375 C 234.476562 190.390625 234.523438 190.796875 234.59375 191.199219 C 234.609375 191.292969 234.691406 191.460938 234.722656 191.457031 C 234.871094 191.449219 235.007812 191.394531 235.121094 191.300781 C 235.371094 191.039062 235.566406 190.746094 235.699219 190.410156 C 235.910156 189.660156 236.039062 188.902344 236.117188 188.511719 Z M 213.035156 175.230469 C 212.957031 175.144531 212.902344 175.046875 212.820312 175.003906 C 212.460938 174.820312 212.082031 174.683594 211.730469 174.480469 C 211.273438 174.226562 211.089844 174.246094 210.953125 174.667969 C 210.785156 175.144531 210.667969 175.632812 210.597656 176.132812 C 210.585938 176.316406 210.632812 176.488281 210.734375 176.644531 C 210.835938 176.800781 210.972656 176.910156 211.148438 176.972656 C 211.460938 177.09375 211.75 177.046875 212.007812 176.832031 C 212.507812 176.449219 212.84375 175.953125 213.023438 175.351562 C 213.03125 175.304688 213.035156 175.261719 213.027344 175.214844 Z M 156.453125 191.367188 L 156.40625 191.367188 C 156.40625 190.855469 156.40625 190.347656 156.40625 189.839844 C 156.40625 189.394531 156.058594 189.171875 155.539062 189.273438 C 155.414062 189.296875 155.21875 189.441406 155.21875 189.523438 C 155.21875 190.535156 155.273438 191.550781 155.335938 192.558594 C 155.335938 192.839844 155.839844 193.117188 156.183594 193.046875 C 156.53125 192.976562 156.457031 192.675781 156.460938 192.433594 C 156.449219 192.0625 156.445312 191.71875 156.445312 191.351562 Z M 226.613281 146.476562 C 226.613281 146.375 226.597656 146.277344 226.566406 146.179688 C 226.328125 145.660156 225.265625 145.148438 224.761719 145.316406 C 224.507812 145.398438 224.277344 145.574219 224.292969 145.855469 C 224.328125 146.0625 224.433594 146.222656 224.613281 146.332031 C 225.0625 146.574219 225.527344 146.789062 226.003906 146.972656 C 226.160156 147.007812 226.300781 146.972656 226.425781 146.871094 C 226.550781 146.769531 226.613281 146.636719 226.613281 146.476562 Z M 204.945312 180.570312 C 205.078125 180.539062 205.328125 180.570312 205.457031 180.433594 C 206.199219 179.757812 206.914062 179.050781 207.640625 178.347656 C 207.640625 178.347656 207.640625 178.265625 207.621094 178.246094 C 207.601562 178.226562 207.519531 178.1875 207.492188 178.199219 C 206.398438 178.730469 205.40625 179.40625 204.515625 180.234375 C 204.480469 180.277344 204.472656 180.324219 204.488281 180.378906 C 204.488281 180.414062 204.554688 180.449219 204.59375 180.46875 C 204.683594 180.5 204.78125 180.523438 204.945312 180.570312 Z M 210.800781 180.109375 L 210.753906 179.835938 C 210.6875 179.894531 210.625 179.960938 210.570312 180.027344 C 210.507812 180.097656 210.464844 180.183594 210.441406 180.273438 C 210.441406 180.34375 210.488281 180.425781 210.515625 180.503906 C 210.589844 180.464844 210.6875 180.4375 210.730469 180.375 C 210.769531 180.292969 210.792969 180.203125 210.796875 180.109375 Z M 212.347656 180.53125 L 212.292969 180.410156 C 212.265625 180.433594 212.210938 180.46875 212.21875 180.484375 C 212.242188 180.542969 212.269531 180.601562 212.304688 180.660156 Z M 212.347656 180.53125 " fill-opacity="1" fill-rule="nonzero"/></g><path fill="#000000" d="M 140.347656 212.292969 C 140.285156 212.167969 140.257812 211.972656 140.152344 211.921875 C 139.675781 211.621094 139.179688 211.363281 138.660156 211.144531 C 136.96875 210.539062 135.234375 210.097656 133.457031 209.816406 C 131.320312 209.464844 129.175781 209.367188 127.015625 209.519531 C 124.960938 209.617188 122.949219 209.980469 120.988281 210.609375 C 120.015625 210.9375 119.042969 211.257812 118.066406 211.570312 C 117.867188 211.613281 117.667969 211.628906 117.464844 211.621094 C 117.410156 211.613281 117.371094 211.582031 117.347656 211.535156 C 117.320312 211.445312 117.273438 211.316406 117.3125 211.265625 C 117.441406 211.101562 117.585938 210.957031 117.75 210.828125 C 118.519531 210.230469 119.304688 209.65625 120.070312 209.054688 C 121.527344 207.875 123.171875 207.066406 124.996094 206.632812 C 125.703125 206.511719 126.414062 206.433594 127.128906 206.394531 C 127.183594 206.390625 127.226562 206.363281 127.257812 206.320312 C 127.265625 206.273438 127.253906 206.230469 127.222656 206.191406 C 127.121094 206.082031 127.011719 205.972656 126.902344 205.871094 C 125.390625 204.640625 123.875 203.414062 122.367188 202.179688 C 122.171875 202.019531 121.984375 201.84375 121.8125 201.65625 C 121.765625 201.59375 121.734375 201.527344 121.722656 201.449219 C 121.714844 201.371094 121.722656 201.296875 121.75 201.222656 C 121.78125 201.152344 121.824219 201.089844 121.886719 201.042969 C 121.945312 200.992188 122.015625 200.964844 122.09375 200.953125 C 122.292969 200.917969 122.496094 200.894531 122.703125 200.886719 C 124 200.808594 125.265625 201.089844 126.496094 201.394531 C 129.945312 202.253906 133 203.859375 135.667969 206.203125 C 136.703125 207.050781 137.652344 207.984375 138.519531 209 C 139.554688 210.230469 140.773438 211.238281 142.175781 212.019531 C 143.992188 213.074219 145.796875 214.15625 147.625 215.226562 C 147.675781 215.242188 147.726562 215.25 147.777344 215.25 C 147.78125 215.171875 147.78125 215.09375 147.777344 215.015625 C 147.761719 214.964844 147.738281 214.917969 147.703125 214.878906 C 146.914062 213.800781 146.03125 212.800781 145.058594 211.882812 C 143.375 210.230469 141.6875 208.578125 140.035156 206.898438 C 136.53125 203.402344 133.5 199.535156 130.945312 195.296875 C 130.605469 194.722656 130.210938 194.183594 129.851562 193.625 C 129.742188 193.449219 129.652344 193.269531 129.574219 193.082031 C 129.539062 192.953125 129.5625 192.832031 129.640625 192.722656 C 129.71875 192.613281 129.824219 192.554688 129.957031 192.546875 C 130.109375 192.554688 130.257812 192.578125 130.40625 192.625 C 135.429688 194.570312 139.304688 197.84375 141.8125 202.652344 C 142.859375 204.652344 143.851562 206.675781 144.878906 208.6875 C 145.867188 210.609375 147.023438 212.429688 148.347656 214.136719 C 148.667969 214.542969 148.988281 214.933594 149.339844 215.3125 C 150.429688 216.496094 151.628906 217.515625 153.226562 217.953125 C 153.476562 218.019531 153.710938 218.117188 153.9375 218.238281 C 154.039062 218.285156 154.105469 218.355469 154.148438 218.457031 C 154.1875 218.554688 154.1875 218.65625 154.144531 218.757812 C 154.113281 218.859375 154.050781 218.9375 153.957031 218.988281 C 153.863281 219.042969 153.765625 219.058594 153.660156 219.03125 C 153.113281 218.902344 152.578125 218.734375 152.054688 218.53125 C 150.777344 218 149.480469 217.953125 148.167969 218.390625 C 146.113281 219.035156 144.019531 219.539062 141.898438 219.902344 C 140.464844 220.128906 139.03125 220.121094 137.601562 219.878906 C 136.390625 219.675781 135.199219 219.371094 133.957031 219.382812 C 133.804688 219.355469 133.695312 219.269531 133.636719 219.128906 C 133.617188 218.972656 133.660156 218.839844 133.769531 218.726562 C 133.925781 218.59375 134.101562 218.492188 134.292969 218.421875 C 137.371094 217.1875 140.535156 216.394531 143.882812 216.644531 C 145.164062 216.738281 146.421875 216.964844 147.691406 217.125 C 147.945312 217.144531 148.195312 217.144531 148.449219 217.125 C 148.480469 217.125 148.535156 217.078125 148.535156 217.046875 C 148.539062 216.992188 148.523438 216.945312 148.484375 216.902344 C 148.378906 216.792969 148.261719 216.699219 148.136719 216.617188 C 146.796875 215.859375 145.445312 215.121094 144.109375 214.375 C 143.148438 213.839844 142.121094 213.554688 141.023438 213.519531 C 138.476562 213.375 136.019531 213.777344 133.648438 214.71875 C 132.265625 215.269531 130.910156 215.878906 129.542969 216.453125 C 127.441406 217.335938 125.269531 217.898438 122.972656 217.828125 C 122.257812 217.808594 121.546875 217.695312 120.832031 217.625 C 120.375 217.578125 119.914062 217.542969 119.457031 217.492188 C 119 217.445312 118.539062 217.40625 118.085938 217.328125 C 117.445312 217.21875 117.164062 217.027344 117.25 216.84375 C 117.410156 216.523438 117.734375 216.496094 118.003906 216.378906 C 118.707031 216.058594 119.421875 215.777344 120.113281 215.453125 C 122.253906 214.460938 124.359375 213.386719 126.667969 212.824219 C 128.410156 212.402344 130.148438 211.964844 131.960938 211.925781 C 132.828125 211.90625 133.699219 211.730469 134.5625 211.769531 C 135.789062 211.824219 137.011719 211.996094 138.234375 212.136719 C 138.941406 212.21875 139.640625 212.414062 140.363281 212.269531 C 140.371094 212.3125 140.386719 212.355469 140.410156 212.394531 C 140.429688 212.417969 140.484375 212.394531 140.523438 212.410156 Z M 143.992188 209.171875 C 143.941406 209.046875 143.890625 208.90625 143.824219 208.769531 C 142.929688 206.988281 142.039062 205.207031 141.132812 203.425781 C 140.785156 202.742188 140.429688 202.0625 140.039062 201.402344 C 139.199219 199.957031 138.171875 198.65625 136.957031 197.503906 C 135.742188 196.355469 134.386719 195.402344 132.894531 194.644531 C 132.5 194.441406 132.136719 194.113281 131.640625 194.175781 C 131.441406 194.199219 131.464844 194.285156 132.121094 195.34375 C 132.441406 195.867188 132.761719 196.386719 133.101562 196.902344 C 136.074219 201.480469 139.796875 205.414062 143.679688 209.21875 C 143.753906 209.273438 143.835938 209.304688 143.921875 209.316406 C 143.953125 209.269531 143.976562 209.222656 143.992188 209.171875 Z M 137.304688 209.714844 L 137.648438 209.675781 C 137.628906 209.589844 137.648438 209.488281 137.585938 209.429688 C 136.511719 208.191406 135.3125 207.082031 134 206.101562 C 131.070312 203.828125 127.773438 202.425781 124.109375 201.890625 C 124.035156 201.890625 123.945312 201.960938 123.863281 201.996094 C 123.894531 202.09375 123.941406 202.183594 124.007812 202.261719 C 124.773438 202.9375 125.527344 203.632812 126.324219 204.261719 C 128.265625 205.871094 130.402344 207.152344 132.734375 208.109375 C 134.269531 208.710938 135.824219 209.195312 137.304688 209.714844 Z M 134.417969 212.503906 C 133.292969 212.644531 131.855469 212.777344 130.449219 213 C 127.382812 213.460938 124.464844 214.386719 121.691406 215.777344 C 121.285156 215.984375 120.886719 216.207031 120.484375 216.417969 C 120.863281 216.816406 121.402344 216.683594 121.863281 216.832031 C 122.164062 216.898438 122.46875 216.917969 122.777344 216.898438 C 125.011719 216.910156 127.152344 216.460938 129.191406 215.546875 C 131.5 214.566406 133.761719 213.453125 136.242188 212.902344 C 136.335938 212.863281 136.421875 212.8125 136.496094 212.746094 C 136.417969 212.699219 136.34375 212.621094 136.265625 212.613281 C 135.769531 212.578125 135.257812 212.554688 134.4375 212.503906 Z M 139.726562 219.117188 C 141.75 219.117188 143.625 218.65625 145.496094 218.132812 C 145.546875 218.121094 145.589844 218.097656 145.632812 218.070312 C 145.667969 218.039062 145.699219 218.003906 145.726562 217.96875 C 145.6875 217.9375 145.648438 217.886719 145.601562 217.882812 C 144.90625 217.765625 144.207031 217.609375 143.5 217.558594 C 141.277344 217.390625 139.148438 217.902344 137.03125 218.472656 C 136.980469 218.480469 136.9375 218.503906 136.898438 218.539062 C 136.867188 218.558594 136.824219 218.613281 136.832031 218.632812 C 136.855469 218.679688 136.894531 218.714844 136.941406 218.738281 C 137.871094 219.121094 138.84375 219.085938 139.746094 219.117188 Z M 128.15625 208.539062 C 128.871094 208.539062 129.585938 208.539062 130.300781 208.539062 C 130.402344 208.53125 130.5 208.511719 130.597656 208.480469 C 130.53125 208.363281 130.488281 208.199219 130.386719 208.140625 C 130.082031 207.957031 129.761719 207.808594 129.425781 207.703125 C 128.203125 207.367188 126.96875 207.292969 125.71875 207.480469 C 124.464844 207.667969 123.304688 208.097656 122.238281 208.773438 C 122.152344 208.832031 122.082031 208.902344 122.023438 208.980469 C 121.996094 209.011719 121.972656 209.078125 121.988281 209.101562 C 122.023438 209.144531 122.066406 209.167969 122.117188 209.175781 C 122.269531 209.199219 122.417969 209.199219 122.570312 209.175781 C 124.414062 208.753906 126.285156 208.535156 128.175781 208.53125 Z M 128.15625 208.539062 " fill-opacity="1" fill-rule="nonzero"/><path fill="#000000" d="M 191.871094 169.085938 C 191.824219 169.523438 191.734375 169.949219 191.601562 170.367188 C 190.886719 172.257812 189.847656 173.945312 188.480469 175.433594 C 188.386719 175.558594 188.265625 175.652344 188.125 175.71875 C 187.945312 175.804688 187.753906 175.816406 187.5625 175.757812 C 187.117188 175.507812 186.707031 175.207031 186.332031 174.855469 C 185.023438 173.574219 184.125 172.050781 183.632812 170.285156 C 183.410156 169.625 183.433594 168.976562 183.710938 168.335938 C 183.777344 168.15625 183.882812 167.996094 184.019531 167.859375 C 184.160156 167.722656 184.320312 167.621094 184.5 167.550781 C 184.683594 167.480469 184.871094 167.453125 185.0625 167.464844 C 185.257812 167.476562 185.441406 167.527344 185.613281 167.617188 C 186.15625 167.914062 186.617188 168.308594 186.992188 168.800781 C 187.253906 169.089844 187.347656 169.066406 187.550781 168.75 C 187.871094 168.234375 188.191406 167.714844 188.550781 167.207031 C 188.824219 166.824219 189.179688 166.539062 189.613281 166.359375 C 189.765625 166.28125 189.921875 166.234375 190.089844 166.21875 C 190.257812 166.199219 190.421875 166.210938 190.582031 166.253906 C 190.746094 166.296875 190.894531 166.367188 191.03125 166.46875 C 191.164062 166.566406 191.28125 166.6875 191.371094 166.828125 C 191.800781 167.394531 191.878906 168.046875 191.871094 169.085938 Z M 190.96875 168.90625 C 190.914062 168.472656 190.898438 168.164062 190.828125 167.867188 C 190.785156 167.585938 190.625 167.402344 190.355469 167.3125 C 190.082031 167.222656 189.84375 167.277344 189.640625 167.476562 C 189.40625 167.679688 189.203125 167.90625 189.039062 168.167969 C 188.714844 168.738281 188.394531 169.332031 188.101562 169.925781 C 187.941406 170.246094 187.855469 170.625 187.429688 170.683594 C 186.902344 170.75 186.746094 170.332031 186.554688 169.972656 C 186.339844 169.496094 186.035156 169.09375 185.640625 168.753906 C 185.386719 168.515625 185.105469 168.46875 184.789062 168.613281 C 184.519531 168.816406 184.414062 169.085938 184.46875 169.421875 C 184.488281 169.574219 184.515625 169.722656 184.554688 169.871094 C 184.890625 171.359375 185.582031 172.660156 186.628906 173.765625 C 187.839844 175.070312 187.699219 174.925781 188.730469 173.617188 C 189.527344 172.601562 190.152344 171.488281 190.609375 170.28125 C 190.753906 169.828125 190.875 169.371094 190.96875 168.90625 Z M 190.96875 168.90625 " fill-opacity="1" fill-rule="nonzero"/><path fill="#000000" d="M 178.472656 161.167969 C 178.316406 163.808594 177.484375 165.945312 175.632812 167.621094 C 175.402344 167.890625 175.125 167.964844 174.792969 167.84375 C 172.636719 166.800781 170.914062 165.347656 170.363281 162.882812 C 170.269531 162.429688 170.277344 161.976562 170.390625 161.523438 C 170.710938 160.292969 171.753906 159.835938 172.898438 160.394531 C 173.257812 160.597656 173.597656 160.820312 173.929688 161.0625 C 174.019531 161.121094 174.113281 161.136719 174.21875 161.105469 C 174.320312 161.074219 174.390625 161.011719 174.433594 160.914062 C 174.554688 160.628906 174.644531 160.335938 174.777344 160.0625 C 174.929688 159.738281 175.109375 159.429688 175.308594 159.132812 C 175.472656 158.859375 175.695312 158.652344 175.976562 158.511719 C 176.257812 158.367188 176.558594 158.3125 176.871094 158.34375 C 177.601562 158.421875 177.910156 158.984375 178.117188 159.558594 C 178.273438 160.085938 178.390625 160.625 178.472656 161.167969 Z M 177.507812 161.644531 C 177.382812 161.003906 177.292969 160.359375 177.125 159.71875 C 177.070312 159.527344 176.949219 159.410156 176.75 159.371094 C 176.554688 159.332031 176.394531 159.390625 176.273438 159.546875 C 175.871094 159.953125 175.597656 160.433594 175.453125 160.984375 C 175.308594 161.472656 175.214844 161.976562 175.082031 162.46875 C 175.046875 162.699219 174.917969 162.851562 174.695312 162.917969 C 174.46875 162.984375 174.28125 162.933594 174.121094 162.761719 C 173.832031 162.472656 173.59375 162.121094 173.285156 161.867188 C 172.976562 161.601562 172.644531 161.375 172.28125 161.191406 C 172.105469 161.113281 171.933594 161.109375 171.757812 161.1875 C 171.582031 161.265625 171.464844 161.394531 171.40625 161.574219 C 171.304688 161.8125 171.25 162.058594 171.253906 162.316406 C 171.304688 162.992188 171.507812 163.617188 171.871094 164.191406 C 172.546875 165.183594 173.402344 165.984375 174.433594 166.59375 C 174.867188 166.851562 175.121094 166.796875 175.503906 166.378906 C 176.738281 165.039062 177.40625 163.460938 177.507812 161.644531 Z M 177.507812 161.644531 " fill-opacity="1" fill-rule="nonzero"/><path fill="#000000" d="M 187.761719 162.34375 C 187.492188 162.347656 187.238281 162.28125 187.003906 162.144531 C 186.769531 162.007812 186.585938 161.824219 186.453125 161.585938 C 186.289062 161.3125 186.222656 161.015625 186.257812 160.695312 C 186.289062 160.378906 186.414062 160.101562 186.628906 159.867188 C 186.820312 159.617188 187.042969 159.402344 187.300781 159.226562 C 187.390625 159.167969 187.488281 159.117188 187.59375 159.082031 C 187.695312 159.046875 187.804688 159.027344 187.914062 159.019531 C 188.023438 159.011719 188.128906 159.015625 188.238281 159.035156 C 188.347656 159.050781 188.449219 159.085938 188.550781 159.128906 C 188.648438 159.175781 188.742188 159.230469 188.828125 159.296875 C 188.914062 159.367188 188.992188 159.445312 189.058594 159.53125 C 189.125 159.617188 189.179688 159.710938 189.222656 159.8125 C 189.261719 159.914062 189.292969 160.019531 189.308594 160.125 C 189.351562 160.433594 189.351562 160.738281 189.308594 161.042969 C 189.234375 161.84375 188.667969 162.332031 187.761719 162.34375 Z M 187.234375 160.882812 C 187.261719 160.976562 187.304688 161.0625 187.363281 161.144531 C 187.445312 161.242188 187.546875 161.308594 187.671875 161.339844 C 187.796875 161.371094 187.917969 161.359375 188.035156 161.308594 C 188.289062 161.191406 188.414062 160.992188 188.40625 160.710938 C 188.445312 160.429688 188.335938 160.222656 188.085938 160.089844 C 188.042969 160.058594 187.996094 160.039062 187.949219 160.035156 C 187.75 160.085938 187.585938 160.191406 187.457031 160.347656 C 187.328125 160.5 187.253906 160.679688 187.234375 160.882812 Z M 187.234375 160.882812 " fill-opacity="1" fill-rule="nonzero"/><path fill="#000000" d="M 223.8125 175.609375 C 223.8125 176.339844 223.367188 177 222.789062 177.140625 C 222.605469 177.191406 222.417969 177.207031 222.226562 177.191406 C 222.035156 177.175781 221.851562 177.128906 221.675781 177.046875 C 221.503906 176.964844 221.347656 176.855469 221.214844 176.71875 C 221.082031 176.582031 220.972656 176.425781 220.894531 176.25 C 220.703125 175.855469 220.703125 175.464844 220.894531 175.070312 C 220.941406 174.980469 221 174.898438 221.054688 174.8125 C 221.5 174.085938 221.957031 173.8125 222.496094 173.960938 C 222.882812 174.042969 223.203125 174.238281 223.453125 174.546875 C 223.699219 174.859375 223.820312 175.214844 223.8125 175.609375 Z M 222.851562 175.707031 C 222.859375 175.550781 222.816406 175.414062 222.726562 175.289062 C 222.632812 175.164062 222.511719 175.085938 222.359375 175.050781 C 222.207031 175.070312 222.074219 175.136719 221.964844 175.246094 C 221.855469 175.355469 221.789062 175.484375 221.769531 175.640625 C 221.785156 175.921875 221.925781 176.109375 222.195312 176.203125 C 222.351562 176.222656 222.496094 176.183594 222.621094 176.089844 C 222.75 175.992188 222.824219 175.863281 222.847656 175.707031 Z M 222.851562 175.707031 " fill-opacity="1" fill-rule="nonzero"/><path fill="#000000" d="M 128.105469 199.414062 C 127.835938 199.414062 127.582031 199.363281 127.335938 199.253906 C 127.089844 199.148438 126.875 198.996094 126.691406 198.796875 C 126.511719 198.597656 126.378906 198.371094 126.296875 198.117188 C 126.210938 197.859375 126.183594 197.601562 126.207031 197.332031 C 126.234375 197.097656 126.320312 196.890625 126.472656 196.710938 C 126.628906 196.527344 126.816406 196.40625 127.046875 196.34375 C 128.226562 195.964844 129.5625 197.109375 129.40625 198.351562 C 129.351562 198.664062 129.199219 198.921875 128.953125 199.125 C 128.707031 199.324219 128.425781 199.421875 128.105469 199.414062 Z M 128.359375 198.054688 C 128.347656 197.84375 128.265625 197.660156 128.121094 197.507812 C 127.976562 197.355469 127.800781 197.265625 127.589844 197.238281 C 127.417969 197.210938 127.152344 197.449219 127.179688 197.609375 C 127.210938 197.816406 127.296875 197.992188 127.441406 198.144531 C 127.585938 198.292969 127.761719 198.386719 127.96875 198.421875 C 128.074219 198.425781 128.164062 198.390625 128.238281 198.320312 C 128.316406 198.25 128.355469 198.160156 128.359375 198.058594 Z M 128.359375 198.054688 " fill-opacity="1" fill-rule="nonzero"/><path fill="#000000" d="M 166.597656 173.484375 C 166.496094 173.484375 166.394531 173.476562 166.292969 173.460938 C 165.601562 173.304688 165.3125 172.761719 165.109375 172.179688 C 165.015625 171.933594 164.992188 171.683594 165.042969 171.421875 C 165.09375 171.164062 165.207031 170.9375 165.390625 170.746094 C 166.265625 169.761719 167.789062 170.589844 168.03125 171.386719 C 168.097656 171.625 168.113281 171.863281 168.078125 172.105469 C 168.039062 172.351562 167.949219 172.574219 167.808594 172.777344 C 167.671875 172.980469 167.496094 173.144531 167.285156 173.265625 C 167.070312 173.390625 166.84375 173.464844 166.597656 173.484375 Z M 166.558594 172.484375 C 166.859375 172.464844 167.042969 172.308594 167.117188 172.015625 C 167.128906 171.859375 167.089844 171.714844 167 171.585938 C 166.90625 171.457031 166.785156 171.375 166.628906 171.335938 C 166.53125 171.296875 166.429688 171.292969 166.328125 171.328125 C 166.226562 171.359375 166.148438 171.421875 166.09375 171.511719 C 166.023438 171.710938 166.035156 171.90625 166.125 172.097656 C 166.214844 172.285156 166.359375 172.414062 166.558594 172.484375 Z M 166.558594 172.484375 " fill-opacity="1" fill-rule="nonzero"/><g clip-path="url(#3b097fff3e)"><path fill="#000000" d="M 116.394531 204.707031 C 116.574219 204.695312 116.75 204.722656 116.917969 204.78125 C 117.089844 204.84375 117.242188 204.933594 117.378906 205.050781 C 117.515625 205.171875 117.621094 205.3125 117.703125 205.472656 C 117.78125 205.636719 117.828125 205.808594 117.84375 205.988281 C 117.84375 206.195312 117.804688 206.394531 117.730469 206.585938 C 117.65625 206.777344 117.550781 206.949219 117.410156 207.101562 C 117.269531 207.25 117.105469 207.371094 116.921875 207.460938 C 116.734375 207.550781 116.539062 207.605469 116.335938 207.621094 C 116.140625 207.625 115.957031 207.589844 115.777344 207.519531 C 115.597656 207.449219 115.4375 207.34375 115.300781 207.210938 C 115.160156 207.074219 115.054688 206.917969 114.980469 206.742188 C 114.902344 206.566406 114.863281 206.378906 114.863281 206.1875 C 114.914062 205.792969 115.082031 205.457031 115.371094 205.179688 C 115.65625 204.902344 115.996094 204.742188 116.394531 204.707031 Z M 116.84375 206.125 C 116.785156 206.046875 116.722656 205.898438 116.617188 205.84375 C 116.476562 205.773438 116.335938 205.769531 116.191406 205.835938 C 116.050781 205.902344 115.960938 206.011719 115.921875 206.164062 C 115.898438 206.261719 115.914062 206.355469 115.964844 206.441406 C 116.011719 206.53125 116.085938 206.589844 116.179688 206.621094 C 116.34375 206.644531 116.488281 206.609375 116.617188 206.511719 C 116.75 206.417969 116.824219 206.285156 116.84375 206.125 Z M 116.84375 206.125 " fill-opacity="1" fill-rule="nonzero"/></g><path fill="#000000" d="M 198.019531 174.640625 C 198.199219 174.636719 198.375 174.671875 198.539062 174.738281 C 198.707031 174.808594 198.851562 174.910156 198.976562 175.039062 C 199.101562 175.167969 199.195312 175.316406 199.261719 175.488281 C 199.324219 175.65625 199.351562 175.832031 199.339844 176.011719 C 199.238281 176.890625 198.644531 177.570312 197.738281 177.503906 C 197.558594 177.484375 197.390625 177.429688 197.230469 177.339844 C 197.074219 177.253906 196.9375 177.140625 196.820312 177.003906 C 196.707031 176.863281 196.621094 176.710938 196.566406 176.539062 C 196.507812 176.367188 196.484375 176.191406 196.496094 176.011719 C 196.5 175.816406 196.542969 175.632812 196.621094 175.453125 C 196.703125 175.277344 196.816406 175.125 196.960938 174.992188 C 197.105469 174.863281 197.269531 174.769531 197.453125 174.707031 C 197.636719 174.644531 197.824219 174.621094 198.019531 174.640625 Z M 198.273438 175.921875 C 198.210938 175.859375 198.128906 175.714844 198.011719 175.679688 C 197.773438 175.597656 197.539062 175.855469 197.597656 176.148438 C 197.632812 176.292969 197.71875 176.398438 197.847656 176.46875 C 198.042969 176.570312 198.285156 176.273438 198.273438 175.929688 Z M 198.273438 175.921875 " fill-opacity="1" fill-rule="nonzero"/><path fill="#000000" d="M 148.65625 210.074219 C 148.648438 209.84375 148.6875 209.617188 148.78125 209.40625 C 148.871094 209.191406 149.003906 209.003906 149.179688 208.851562 C 149.355469 208.695312 149.550781 208.585938 149.777344 208.519531 C 150 208.453125 150.226562 208.4375 150.457031 208.472656 C 150.667969 208.5 150.835938 208.601562 150.964844 208.769531 C 151.152344 209.015625 151.273438 209.292969 151.320312 209.597656 C 151.367188 209.90625 151.335938 210.203125 151.230469 210.496094 C 150.945312 211.230469 150.429688 211.546875 149.695312 211.390625 C 149.386719 211.320312 149.136719 211.164062 148.941406 210.917969 C 148.746094 210.671875 148.652344 210.390625 148.65625 210.074219 Z M 150.410156 210 C 150.230469 209.820312 150.125 209.628906 149.992188 209.605469 C 149.761719 209.5625 149.671875 209.785156 149.625 209.980469 C 149.582031 210.171875 149.785156 210.425781 149.945312 210.375 C 150.105469 210.320312 150.207031 210.167969 150.410156 209.992188 Z M 150.410156 210 " fill-opacity="1" fill-rule="nonzero"/><path fill="#000000" d="M 237.960938 215.042969 C 238.210938 215.003906 238.449219 214.9375 238.679688 214.839844 C 240.621094 213.6875 242.5625 212.542969 244.472656 211.339844 C 245.300781 210.8125 246.03125 210.171875 246.660156 209.417969 C 248.261719 207.527344 250.082031 205.882812 252.128906 204.488281 C 254.796875 202.664062 257.722656 201.5 260.914062 200.992188 C 261.78125 200.902344 262.648438 200.890625 263.515625 200.953125 C 263.804688 200.953125 263.941406 201.472656 263.722656 201.703125 C 263.472656 201.960938 263.210938 202.199219 262.933594 202.425781 C 261.46875 203.632812 260.003906 204.832031 258.535156 206.039062 C 258.472656 206.117188 258.425781 206.207031 258.394531 206.300781 C 258.484375 206.339844 258.570312 206.417969 258.652344 206.417969 C 261.300781 206.417969 263.5 207.550781 265.539062 209.105469 C 266.4375 209.785156 267.339844 210.460938 268.230469 211.148438 C 268.296875 211.199219 268.363281 211.375 268.332031 211.40625 C 268.242188 211.519531 268.128906 211.59375 267.992188 211.632812 C 267.835938 211.652344 267.683594 211.636719 267.539062 211.582031 C 266.515625 211.261719 265.492188 210.941406 264.472656 210.574219 C 262.71875 209.964844 260.886719 209.75 259.054688 209.539062 C 258.449219 209.472656 257.828125 209.480469 257.214844 209.460938 C 253.796875 209.390625 250.476562 209.910156 247.242188 211.015625 C 246.394531 211.261719 245.640625 211.675781 244.984375 212.265625 C 244.949219 212.300781 244.90625 212.359375 244.914062 212.394531 C 244.9375 212.445312 244.976562 212.472656 245.03125 212.476562 C 245.132812 212.46875 245.234375 212.453125 245.332031 212.433594 C 247.0625 212.214844 248.785156 211.984375 250.511719 211.769531 C 250.820312 211.746094 251.128906 211.746094 251.4375 211.769531 C 255.675781 211.933594 259.769531 212.703125 263.617188 214.609375 C 265.082031 215.335938 266.613281 215.933594 268.105469 216.59375 C 268.15625 216.605469 268.203125 216.625 268.242188 216.660156 C 268.308594 216.730469 268.355469 216.816406 268.375 216.914062 C 268.375 216.992188 268.296875 217.128906 268.234375 217.148438 C 267.796875 217.296875 267.351562 217.398438 266.890625 217.453125 C 265.816406 217.503906 264.757812 217.679688 263.683594 217.792969 C 261.925781 217.992188 260.203125 217.832031 258.511719 217.3125 C 257.390625 216.96875 256.289062 216.539062 255.195312 216.109375 C 254.234375 215.734375 253.316406 215.289062 252.367188 214.90625 C 250.113281 213.980469 247.769531 213.519531 245.335938 213.519531 C 243.707031 213.480469 242.195312 213.890625 240.804688 214.738281 C 239.667969 215.433594 238.46875 216.023438 237.304688 216.664062 C 237.175781 216.746094 237.0625 216.847656 236.960938 216.960938 C 236.929688 216.988281 236.90625 217.0625 236.921875 217.085938 C 236.957031 217.125 237 217.148438 237.050781 217.152344 C 237.308594 217.15625 237.5625 217.144531 237.816406 217.121094 C 238.980469 216.972656 240.148438 216.800781 241.320312 216.664062 C 243.648438 216.40625 245.925781 216.753906 248.160156 217.371094 C 249.292969 217.691406 250.402344 218.117188 251.496094 218.519531 C 251.675781 218.613281 251.835938 218.734375 251.972656 218.882812 C 252.023438 218.945312 252.042969 219.019531 252.027344 219.097656 C 252.011719 219.175781 251.972656 219.238281 251.902344 219.277344 C 251.769531 219.351562 251.625 219.394531 251.476562 219.40625 C 250.382812 219.3125 249.339844 219.613281 248.269531 219.800781 C 246.535156 220.121094 244.804688 220.113281 243.074219 219.78125 C 241.011719 219.386719 238.984375 218.859375 236.984375 218.261719 C 235.914062 217.949219 234.859375 217.996094 233.816406 218.398438 C 233.292969 218.597656 232.769531 218.820312 232.234375 218.992188 C 232.035156 219.046875 231.835938 219.039062 231.640625 218.972656 C 231.507812 218.898438 231.417969 218.792969 231.367188 218.648438 C 231.363281 218.542969 231.402344 218.457031 231.484375 218.390625 C 231.691406 218.230469 231.914062 218.101562 232.160156 218.007812 C 234.058594 217.453125 235.476562 216.253906 236.710938 214.753906 C 238.15625 213.011719 239.402344 211.136719 240.460938 209.136719 C 241.460938 207.226562 242.410156 205.289062 243.386719 203.367188 C 244.285156 201.570312 245.382812 199.90625 246.683594 198.375 C 248.46875 196.34375 250.578125 194.742188 253.011719 193.566406 C 253.65625 193.246094 254.316406 192.964844 254.976562 192.679688 C 255.160156 192.59375 255.355469 192.535156 255.558594 192.515625 C 255.714844 192.507812 255.847656 192.558594 255.960938 192.664062 C 256.03125 192.792969 256.054688 192.929688 256.03125 193.070312 C 256.011719 193.175781 255.96875 193.265625 255.902344 193.347656 C 254.578125 195.359375 253.285156 197.394531 251.921875 199.378906 C 250.144531 201.96875 248.03125 204.285156 245.875 206.546875 C 244.109375 208.40625 242.210938 210.136719 240.40625 211.957031 C 239.613281 212.753906 238.894531 213.628906 238.160156 214.488281 C 238.046875 214.625 238.050781 214.859375 238 215.042969 C 237.953125 215.046875 237.90625 215.054688 237.863281 215.074219 C 237.839844 215.074219 237.835938 215.132812 237.820312 215.164062 Z M 263.859375 209.175781 L 263.953125 209.285156 L 263.816406 209.21875 C 262.898438 208.472656 261.863281 207.945312 260.71875 207.644531 C 259.570312 207.339844 258.414062 207.285156 257.246094 207.476562 C 256.445312 207.621094 255.617188 207.707031 254.96875 208.285156 C 254.929688 208.316406 254.894531 208.355469 254.859375 208.390625 C 254.917969 208.4375 254.96875 208.515625 255.027344 208.519531 C 255.230469 208.519531 255.4375 208.519531 255.640625 208.519531 C 258.097656 208.496094 260.539062 208.582031 262.949219 209.160156 C 263.253906 209.203125 263.5625 209.207031 263.867188 209.175781 Z M 241.652344 209.175781 C 242.078125 209.175781 242.265625 208.835938 242.503906 208.59375 C 244.296875 206.761719 246.101562 204.941406 247.796875 203.015625 C 249.957031 200.535156 251.898438 197.894531 253.617188 195.089844 C 253.742188 194.871094 253.855469 194.640625 253.953125 194.40625 C 253.96875 194.359375 253.964844 194.316406 253.933594 194.277344 C 253.855469 194.226562 253.75 194.148438 253.683594 194.167969 C 253.4375 194.246094 253.203125 194.339844 252.972656 194.453125 C 251.253906 195.300781 249.71875 196.394531 248.355469 197.742188 C 246.996094 199.085938 245.882812 200.613281 245.015625 202.320312 C 243.917969 204.40625 242.878906 206.523438 241.824219 208.632812 C 241.757812 208.820312 241.714844 209.015625 241.695312 209.214844 C 241.652344 209.226562 241.609375 209.246094 241.574219 209.265625 C 241.554688 209.265625 241.554688 209.324219 241.542969 209.355469 Z M 261.613281 202.078125 C 261.546875 202.023438 261.46875 201.902344 261.414062 201.910156 C 259.949219 202.125 258.515625 202.480469 257.121094 202.984375 C 253.691406 204.265625 250.851562 206.371094 248.351562 208.996094 C 248.195312 209.195312 248.0625 209.410156 247.945312 209.636719 C 248.207031 209.839844 248.433594 209.636719 248.65625 209.558594 C 249.4375 209.320312 250.226562 209.101562 250.988281 208.800781 C 252.332031 208.304688 253.648438 207.738281 254.933594 207.105469 C 257.332031 205.8125 259.515625 204.222656 261.484375 202.339844 C 261.542969 202.261719 261.589844 202.179688 261.625 202.085938 Z M 262.699219 216.910156 C 262.957031 216.886719 263.46875 216.863281 263.980469 216.789062 C 264.378906 216.722656 264.765625 216.59375 265.160156 216.488281 C 264.878906 216.113281 264.425781 216.046875 264.035156 215.867188 C 263.644531 215.6875 263.292969 215.523438 262.925781 215.34375 C 261.179688 214.472656 259.347656 213.847656 257.429688 213.46875 C 255.773438 213.167969 254.121094 212.828125 252.449219 212.636719 C 251.382812 212.5625 250.3125 212.554688 249.242188 212.609375 C 249.140625 212.628906 249.046875 212.660156 248.957031 212.710938 C 249.039062 212.769531 249.113281 212.855469 249.203125 212.875 C 251.445312 213.386719 253.566406 214.292969 255.660156 215.253906 C 255.890625 215.359375 256.125 215.46875 256.359375 215.574219 C 258.390625 216.433594 260.503906 216.878906 262.707031 216.914062 Z M 245.449219 219.152344 C 246.394531 219.097656 247.007812 219.097656 247.613281 219.015625 C 247.953125 218.933594 248.28125 218.820312 248.597656 218.667969 C 248.453125 218.257812 248.035156 218.375 247.753906 218.261719 C 247.320312 218.113281 246.875 218.007812 246.417969 217.941406 C 244.496094 217.59375 242.59375 217.300781 240.648438 217.757812 C 240.355469 217.828125 240.054688 217.882812 239.761719 217.949219 C 240.042969 218.109375 240.339844 218.242188 240.648438 218.347656 C 241.492188 218.542969 242.34375 218.707031 243.199219 218.851562 C 244.050781 218.996094 244.925781 219.078125 245.457031 219.148438 Z M 245.449219 219.152344 " fill-opacity="1" fill-rule="nonzero"/><path fill="#000000" d="M 257.90625 196.269531 C 258.683594 196.25 259.105469 196.503906 259.335938 197.144531 C 259.375 197.238281 259.402344 197.335938 259.417969 197.4375 C 259.511719 198.613281 258.171875 199.703125 257.058594 199.34375 C 256.835938 199.277344 256.644531 199.15625 256.488281 198.984375 C 256.332031 198.8125 256.234375 198.609375 256.191406 198.378906 C 256.007812 197.539062 256.925781 196.175781 257.90625 196.269531 Z M 258.351562 197.664062 C 258.316406 197.574219 258.304688 197.4375 258.234375 197.398438 C 258.113281 197.320312 257.980469 197.289062 257.835938 197.304688 C 257.507812 197.386719 257.300781 197.589844 257.214844 197.914062 C 257.191406 198.058594 257.214844 198.191406 257.289062 198.3125 C 257.355469 198.398438 257.441406 198.4375 257.550781 198.433594 C 257.757812 198.421875 257.9375 198.339844 258.089844 198.195312 C 258.242188 198.046875 258.328125 197.871094 258.351562 197.664062 Z M 258.351562 197.664062 " fill-opacity="1" fill-rule="nonzero"/><g clip-path="url(#f212ec5d87)"><path fill="#000000" d="M 267.777344 205.980469 C 267.777344 205.800781 267.816406 205.628906 267.890625 205.464844 C 267.96875 205.296875 268.070312 205.15625 268.203125 205.035156 C 268.339844 204.914062 268.492188 204.824219 268.664062 204.765625 C 268.832031 204.707031 269.007812 204.683594 269.191406 204.699219 C 270.023438 204.828125 270.714844 205.421875 270.640625 206.355469 C 270.632812 206.523438 270.59375 206.679688 270.527344 206.832031 C 270.457031 206.984375 270.363281 207.121094 270.246094 207.234375 C 270.125 207.351562 269.992188 207.445312 269.839844 207.511719 C 269.683594 207.578125 269.527344 207.613281 269.359375 207.621094 C 269.140625 207.628906 268.929688 207.59375 268.730469 207.515625 C 268.527344 207.433594 268.347656 207.316406 268.195312 207.160156 C 268.046875 207 267.933594 206.820312 267.859375 206.617188 C 267.785156 206.410156 267.757812 206.199219 267.777344 205.980469 Z M 269.191406 206.753906 C 269.386719 206.546875 269.554688 206.433594 269.621094 206.28125 C 269.710938 206.070312 269.484375 205.800781 269.222656 205.796875 C 269.027344 205.796875 268.78125 205.863281 268.8125 206.089844 C 268.902344 206.332031 269.035156 206.554688 269.203125 206.753906 Z M 269.191406 206.753906 " fill-opacity="1" fill-rule="nonzero"/></g><path fill="#000000" d="M 234.269531 209.921875 C 234.269531 209.722656 234.289062 209.570312 234.3125 209.421875 C 234.320312 209.28125 234.355469 209.144531 234.421875 209.019531 C 234.488281 208.894531 234.578125 208.789062 234.691406 208.703125 C 234.804688 208.617188 234.929688 208.5625 235.070312 208.53125 C 235.207031 208.5 235.347656 208.5 235.484375 208.53125 C 235.796875 208.542969 236.078125 208.644531 236.332031 208.828125 C 236.582031 209.011719 236.761719 209.25 236.871094 209.542969 C 236.945312 209.746094 236.976562 209.953125 236.957031 210.171875 C 236.933594 210.386719 236.867188 210.585938 236.753906 210.773438 C 236.640625 210.957031 236.492188 211.109375 236.3125 211.226562 C 236.128906 211.339844 235.929688 211.410156 235.710938 211.433594 C 235.398438 211.464844 235.109375 211.390625 234.851562 211.207031 C 234.589844 211.023438 234.421875 210.78125 234.34375 210.472656 C 234.308594 210.289062 234.28125 210.105469 234.269531 209.921875 Z M 235.871094 210.09375 C 235.871094 209.773438 235.621094 209.488281 235.441406 209.589844 C 235.324219 209.667969 235.253906 209.777344 235.226562 209.910156 C 235.199219 210.175781 235.476562 210.46875 235.640625 210.375 C 235.765625 210.3125 235.828125 210.171875 235.886719 210.09375 Z M 235.871094 210.09375 " fill-opacity="1" fill-rule="nonzero"/><path fill="#000000" d="M 257.679688 219.679688 C 257.660156 219.992188 257.542969 220.265625 257.328125 220.492188 C 257.109375 220.722656 256.84375 220.851562 256.53125 220.882812 C 256.1875 220.917969 255.878906 220.835938 255.597656 220.640625 C 255.316406 220.441406 255.132812 220.175781 255.050781 219.84375 C 255.042969 219.792969 255.042969 219.742188 255.050781 219.691406 C 255.050781 219.050781 255.773438 218.488281 256.566406 218.5 C 256.71875 218.503906 256.863281 218.535156 257.003906 218.597656 C 257.140625 218.660156 257.261719 218.746094 257.367188 218.859375 C 257.472656 218.96875 257.550781 219.09375 257.605469 219.238281 C 257.660156 219.378906 257.683594 219.527344 257.679688 219.679688 Z M 256.320312 219.871094 L 256.375 219.804688 L 256.285156 219.804688 Z M 256.320312 219.871094 " fill-opacity="1" fill-rule="nonzero"/><path fill="#000000" d="M 130.496094 219.679688 C 130.492188 219.84375 130.457031 220.003906 130.390625 220.152344 C 130.320312 220.304688 130.226562 220.4375 130.109375 220.550781 C 129.988281 220.664062 129.851562 220.75 129.695312 220.808594 C 129.542969 220.867188 129.382812 220.894531 129.214844 220.890625 C 128.871094 220.890625 128.574219 220.777344 128.316406 220.550781 C 128.058594 220.324219 127.910156 220.039062 127.871094 219.699219 C 127.871094 219.546875 127.898438 219.398438 127.953125 219.257812 C 128.011719 219.113281 128.09375 218.988281 128.199219 218.875 C 128.304688 218.765625 128.425781 218.679688 128.5625 218.613281 C 128.703125 218.550781 128.847656 218.515625 129 218.507812 C 129.808594 218.480469 130.492188 219.015625 130.496094 219.679688 Z M 129.125 219.871094 L 129.179688 219.792969 L 129.09375 219.792969 Z M 129.125 219.871094 " fill-opacity="1" fill-rule="nonzero"/><path fill="#000000" d="M 190.863281 215.671875 C 190.585938 214.324219 190.175781 213.769531 189.097656 213.207031 C 187.78125 212.519531 186.472656 211.816406 185.160156 211.117188 C 184.324219 210.703125 183.585938 210.15625 182.949219 209.476562 C 182.597656 209.101562 182.304688 208.6875 182.070312 208.226562 C 181.519531 207.027344 182.203125 205.921875 183.523438 205.820312 C 184.480469 205.730469 185.355469 205.957031 186.148438 206.503906 C 187.683594 207.53125 188.808594 208.898438 189.519531 210.605469 C 189.921875 211.660156 190.433594 212.660156 191.054688 213.601562 C 191.34375 214.019531 191.550781 214.496094 191.804688 214.941406 C 191.859375 215.019531 191.921875 215.085938 191.992188 215.148438 C 192.042969 215.0625 192.136719 214.984375 192.144531 214.894531 C 192.136719 214.433594 192.164062 213.976562 192.21875 213.519531 C 192.398438 212.652344 192.128906 211.914062 191.75 211.167969 C 191.371094 210.421875 191 209.597656 190.628906 208.808594 C 190.121094 207.726562 189.839844 206.589844 189.789062 205.394531 C 189.734375 203.984375 189.996094 202.632812 191.144531 201.625 C 192.238281 200.664062 193.363281 200.664062 194.449219 201.609375 C 195.246094 202.335938 195.679688 203.238281 195.746094 204.316406 C 195.859375 205.246094 195.789062 206.160156 195.535156 207.058594 C 195.203125 208.191406 194.777344 209.285156 194.253906 210.339844 C 193.195312 212.476562 193.203125 212.5 193.351562 214.90625 C 193.371094 215.003906 193.398438 215.101562 193.4375 215.195312 C 193.515625 215.148438 193.621094 215.121094 193.664062 215.054688 C 194.238281 214.144531 194.820312 213.238281 195.367188 212.3125 C 195.550781 211.945312 195.703125 211.566406 195.824219 211.175781 C 196.492188 209.410156 197.566406 207.949219 199.050781 206.785156 C 199.921875 206.058594 200.921875 205.738281 202.050781 205.824219 C 202.59375 205.851562 203.039062 206.074219 203.382812 206.496094 C 203.5625 206.691406 203.675781 206.917969 203.722656 207.175781 C 203.769531 207.433594 203.746094 207.6875 203.644531 207.929688 C 203.371094 208.730469 202.894531 209.386719 202.226562 209.902344 C 201.527344 210.421875 200.804688 210.902344 200.050781 211.335938 C 198.886719 211.976562 197.707031 212.617188 196.503906 213.179688 C 195.855469 213.4375 195.390625 213.882812 195.101562 214.519531 C 195.003906 214.753906 194.847656 214.964844 194.753906 215.199219 C 194.683594 215.378906 194.570312 215.648438 194.644531 215.753906 C 194.832031 216.007812 194.988281 215.703125 195.113281 215.605469 C 196.039062 214.863281 197.035156 214.242188 198.105469 213.734375 C 198.714844 213.46875 199.34375 213.261719 199.996094 213.113281 C 200.558594 212.984375 201.113281 213.03125 201.648438 213.25 C 201.851562 213.3125 202.015625 213.433594 202.140625 213.605469 C 202.261719 213.777344 202.324219 213.972656 202.320312 214.183594 C 202.34375 214.851562 202.089844 215.386719 201.558594 215.789062 C 200.941406 216.351562 200.234375 216.75 199.4375 216.988281 C 198.15625 217.351562 196.871094 217.734375 195.589844 218.09375 C 195.046875 218.25 194.496094 218.371094 193.953125 218.523438 C 193.414062 218.671875 193.3125 218.808594 193.3125 219.410156 C 193.3125 220.277344 193.3125 221.152344 193.292969 222.023438 C 193.277344 222.222656 193.222656 222.417969 193.136719 222.601562 C 193.046875 222.808594 192.558594 222.835938 192.480469 222.628906 C 192.335938 222.304688 192.246094 221.96875 192.203125 221.617188 C 192.160156 220.847656 192.203125 220.078125 192.175781 219.3125 C 192.203125 219.121094 192.160156 218.949219 192.042969 218.796875 C 191.929688 218.644531 191.777344 218.558594 191.585938 218.535156 C 189.960938 218.078125 188.328125 217.636719 186.699219 217.191406 C 185.84375 216.980469 185.0625 216.605469 184.355469 216.074219 C 183.933594 215.769531 183.601562 215.390625 183.355469 214.929688 C 182.984375 214.175781 183.253906 213.472656 184.03125 213.199219 C 184.46875 213.035156 184.921875 212.996094 185.382812 213.078125 C 187.046875 213.363281 188.464844 214.152344 189.808594 215.109375 C 190.128906 215.339844 190.371094 215.734375 190.847656 215.683594 C 190.890625 215.773438 190.847656 216.003906 191.054688 215.800781 Z M 190.6875 205.136719 C 190.777344 205.84375 190.917969 206.539062 191.113281 207.226562 C 191.464844 208.238281 191.9375 209.207031 192.359375 210.195312 C 192.457031 210.429688 192.550781 210.730469 192.84375 210.683594 C 192.988281 210.660156 193.132812 210.410156 193.214844 210.230469 C 193.800781 208.980469 194.410156 207.746094 194.722656 206.386719 C 194.976562 205.359375 194.90625 204.355469 194.519531 203.371094 C 194.394531 202.996094 194.1875 202.675781 193.894531 202.410156 C 193.605469 202.144531 193.269531 201.964844 192.882812 201.875 C 192.296875 201.75 191.394531 202.472656 191.089844 203.328125 C 190.914062 203.921875 190.78125 204.523438 190.6875 205.136719 Z M 201.585938 206.683594 C 201.109375 206.796875 200.648438 206.960938 200.203125 207.175781 C 199.390625 207.671875 198.6875 208.292969 198.089844 209.035156 C 197.492188 209.777344 197.042969 210.601562 196.730469 211.5 C 196.71875 211.605469 196.746094 211.691406 196.816406 211.769531 C 196.902344 211.8125 196.988281 211.8125 197.074219 211.769531 C 198.355469 211.0625 199.6875 210.382812 200.953125 209.625 C 201.417969 209.304688 201.828125 208.929688 202.191406 208.496094 C 202.382812 208.257812 202.535156 207.996094 202.652344 207.710938 C 202.71875 207.566406 202.722656 207.417969 202.667969 207.265625 C 202.613281 207.113281 202.515625 207.003906 202.375 206.929688 C 202.117188 206.835938 201.859375 206.753906 201.597656 206.683594 Z M 183.65625 206.753906 C 182.996094 206.753906 182.660156 207.335938 183.015625 207.996094 C 183.347656 208.648438 183.832031 209.160156 184.460938 209.535156 C 185.820312 210.332031 187.199219 211.082031 188.582031 211.839844 C 188.644531 211.875 188.761719 211.808594 188.847656 211.773438 C 188.863281 211.773438 188.847656 211.679688 188.847656 211.636719 C 188.558594 210.730469 188.125 209.902344 187.546875 209.148438 C 186.96875 208.398438 186.28125 207.761719 185.480469 207.25 C 184.933594 206.878906 184.328125 206.714844 183.664062 206.753906 Z M 201.285156 214.347656 C 201.210938 214.269531 201.15625 214.148438 201.078125 214.136719 C 200.414062 214.003906 199.765625 214.066406 199.136719 214.324219 C 197.660156 214.914062 196.335938 215.75 195.167969 216.828125 C 195.132812 216.863281 195.101562 216.90625 195.082031 216.953125 C 195.0625 216.988281 195.0625 217.027344 195.082031 217.0625 C 195.109375 217.097656 195.167969 217.144531 195.207031 217.132812 C 196.800781 216.824219 198.351562 216.367188 199.859375 215.761719 C 200.449219 215.53125 200.910156 215.148438 201.238281 214.609375 C 201.269531 214.523438 201.289062 214.4375 201.289062 214.347656 Z M 185.203125 214.027344 L 184.492188 214.109375 C 184.386719 214.128906 184.3125 214.1875 184.273438 214.289062 C 184.234375 214.386719 184.246094 214.480469 184.304688 214.566406 C 184.464844 214.828125 184.660156 215.054688 184.902344 215.242188 C 185.503906 215.628906 186.136719 215.949219 186.804688 216.203125 C 187.863281 216.5625 188.960938 216.8125 190.042969 217.09375 C 190.183594 217.097656 190.316406 217.074219 190.449219 217.023438 C 190.410156 216.929688 190.355469 216.84375 190.289062 216.765625 C 189.171875 215.699219 187.890625 214.894531 186.445312 214.347656 C 186.007812 214.199219 185.554688 214.125 185.207031 214.039062 Z M 185.203125 214.027344 " fill-opacity="1" fill-rule="nonzero"/><path fill="#000000" d="M 186.21875 183.886719 C 186.410156 183.882812 186.597656 183.914062 186.777344 183.984375 C 186.953125 184.054688 187.113281 184.15625 187.25 184.292969 C 187.390625 184.425781 187.496094 184.582031 187.570312 184.757812 C 187.644531 184.933594 187.683594 185.117188 187.683594 185.3125 C 187.675781 185.527344 187.632812 185.734375 187.550781 185.9375 C 187.46875 186.136719 187.351562 186.316406 187.207031 186.476562 C 187.058594 186.636719 186.886719 186.765625 186.695312 186.863281 C 186.5 186.960938 186.296875 187.019531 186.082031 187.046875 C 185.121094 187.074219 184.550781 186.136719 184.535156 185.484375 C 184.535156 185.265625 184.578125 185.054688 184.664062 184.851562 C 184.75 184.652344 184.875 184.476562 185.035156 184.324219 C 185.195312 184.171875 185.375 184.058594 185.582031 183.984375 C 185.789062 183.910156 186 183.875 186.21875 183.886719 Z M 186.609375 185.304688 C 186.59375 185.175781 186.539062 185.074219 186.441406 184.988281 C 186.34375 184.90625 186.230469 184.867188 186.105469 184.871094 C 185.945312 184.894531 185.820312 184.964844 185.722656 185.089844 C 185.621094 185.214844 185.582031 185.355469 185.59375 185.511719 C 185.59375 185.640625 185.632812 185.753906 185.710938 185.855469 C 185.789062 185.953125 185.894531 186.019531 186.019531 186.046875 C 186.199219 186.023438 186.347656 185.9375 186.460938 185.796875 C 186.578125 185.652344 186.625 185.492188 186.609375 185.308594 Z M 186.609375 185.304688 " fill-opacity="1" fill-rule="nonzero"/><g clip-path="url(#cdb2a8a2df)"><g clip-path="url(#9d6d4ab2b6)"><path stroke-linecap="butt" transform="matrix(0.75, 0, 0, 0.75, 91.955689, 203.999987)" fill="none" stroke-linejoin="miter" d="M 3.34554 0.0000178613 C 1.496582 0.0000178613 0.00178985 1.49481 0.00178985 3.343768 C 0.00178985 5.192727 1.496582 6.687518 3.34554 6.687518 C 5.18929 6.687518 6.68929 5.192727 6.68929 3.343768 C 6.68929 1.49481 5.18929 0.0000178613 3.34554 0.0000178613 Z M 3.34554 0.0000178613 " stroke="#000000" stroke-width="2" stroke-opacity="1" stroke-miterlimit="4"/></g></g><g clip-path="url(#4514dca764)"><g clip-path="url(#11533c0a10)"><path stroke-linecap="butt" transform="matrix(0.75, 0, 0, 0.75, 288.615746, 203.999987)" fill="none" stroke-linejoin="miter" d="M 3.345672 0.0000178613 C 1.496713 0.0000178613 0.00192154 1.49481 0.00192154 3.343768 C 0.00192154 5.192727 1.496713 6.687518 3.345672 6.687518 C 5.189422 6.687518 6.689422 5.192727 6.689422 3.343768 C 6.689422 1.49481 5.189422 0.0000178613 3.345672 0.0000178613 Z M 3.345672 0.0000178613 " stroke="#000000" stroke-width="2" stroke-opacity="1" stroke-miterlimit="4"/></g></g><g fill="#000000" fill-opacity="1"><g transform="translate(114.720459, 265.315939)"><g><path d="M 2.703125 0 L 2.703125 -14.5625 C 3.992188 -14.65625 5.078125 -14.703125 5.953125 -14.703125 C 7.335938 -14.703125 8.476562 -14.34375 9.375 -13.625 C 10.28125 -12.914062 10.734375 -11.90625 10.734375 -10.59375 C 10.734375 -9.707031 10.472656 -8.878906 9.953125 -8.109375 C 9.441406 -7.347656 8.863281 -6.742188 8.21875 -6.296875 C 8.726562 -5.597656 9.351562 -4.769531 10.09375 -3.8125 C 10.832031 -2.851562 11.3125 -2.25 11.53125 -2 C 12.363281 -1.113281 13.304688 -0.609375 14.359375 -0.484375 L 14.34375 0.15625 C 13.507812 0.144531 12.832031 0.0195312 12.3125 -0.21875 C 11.789062 -0.457031 11.296875 -0.820312 10.828125 -1.3125 C 10.359375 -1.800781 9.191406 -3.328125 7.328125 -5.890625 C 5.984375 -5.890625 4.769531 -5.929688 3.6875 -6.015625 L 3.6875 0 Z M 6.734375 -6.703125 C 7.328125 -6.703125 7.960938 -7.097656 8.640625 -7.890625 C 9.328125 -8.679688 9.671875 -9.597656 9.671875 -10.640625 C 9.671875 -11.679688 9.316406 -12.472656 8.609375 -13.015625 C 7.910156 -13.554688 6.984375 -13.828125 5.828125 -13.828125 C 5.210938 -13.828125 4.5 -13.800781 3.6875 -13.75 L 3.6875 -6.8125 C 4.769531 -6.738281 5.785156 -6.703125 6.734375 -6.703125 Z M 6.734375 -6.703125 "/></g></g></g><g fill="#000000" fill-opacity="1"><g transform="translate(136.072091, 265.315939)"><g><path d="M 2.703125 0 L 2.703125 -14.625 L 9.484375 -14.625 L 9.484375 -13.765625 L 3.6875 -13.765625 L 3.6875 -8.390625 L 8.9375 -8.390625 L 8.9375 -7.546875 L 3.6875 -7.546875 L 3.6875 -0.859375 L 9.71875 -0.859375 L 9.71875 0 Z M 2.703125 0 "/></g></g></g><g fill="#000000" fill-opacity="1"><g transform="translate(154.908472, 265.315939)"><g><path d="M 7.5625 -2.96875 L 12.46875 -14.625 L 13.515625 -14.625 L 7.21875 0.125 L 6.640625 0.125 L 0.328125 -14.625 L 1.4375 -14.625 L 6.34375 -3 C 6.6875 -2.175781 6.894531 -1.601562 6.96875 -1.28125 C 7.082031 -1.71875 7.28125 -2.28125 7.5625 -2.96875 Z M 7.5625 -2.96875 "/></g></g></g><g fill="#000000" fill-opacity="1"><g transform="translate(176.648635, 265.315939)"><g><path d="M 2.703125 0 L 2.703125 -14.625 L 9.484375 -14.625 L 9.484375 -13.765625 L 3.6875 -13.765625 L 3.6875 -8.390625 L 8.9375 -8.390625 L 8.9375 -7.546875 L 3.6875 -7.546875 L 3.6875 -0.859375 L 9.71875 -0.859375 L 9.71875 0 Z M 2.703125 0 "/></g></g></g><g fill="#000000" fill-opacity="1"><g transform="translate(195.485013, 265.315939)"><g><path d="M 2.703125 0 L 2.703125 -14.5625 C 3.992188 -14.65625 5.078125 -14.703125 5.953125 -14.703125 C 7.335938 -14.703125 8.476562 -14.34375 9.375 -13.625 C 10.28125 -12.914062 10.734375 -11.90625 10.734375 -10.59375 C 10.734375 -9.707031 10.472656 -8.878906 9.953125 -8.109375 C 9.441406 -7.347656 8.863281 -6.742188 8.21875 -6.296875 C 8.726562 -5.597656 9.351562 -4.769531 10.09375 -3.8125 C 10.832031 -2.851562 11.3125 -2.25 11.53125 -2 C 12.363281 -1.113281 13.304688 -0.609375 14.359375 -0.484375 L 14.34375 0.15625 C 13.507812 0.144531 12.832031 0.0195312 12.3125 -0.21875 C 11.789062 -0.457031 11.296875 -0.820312 10.828125 -1.3125 C 10.359375 -1.800781 9.191406 -3.328125 7.328125 -5.890625 C 5.984375 -5.890625 4.769531 -5.929688 3.6875 -6.015625 L 3.6875 0 Z M 6.734375 -6.703125 C 7.328125 -6.703125 7.960938 -7.097656 8.640625 -7.890625 C 9.328125 -8.679688 9.671875 -9.597656 9.671875 -10.640625 C 9.671875 -11.679688 9.316406 -12.472656 8.609375 -13.015625 C 7.910156 -13.554688 6.984375 -13.828125 5.828125 -13.828125 C 5.210938 -13.828125 4.5 -13.800781 3.6875 -13.75 L 3.6875 -6.8125 C 4.769531 -6.738281 5.785156 -6.703125 6.734375 -6.703125 Z M 6.734375 -6.703125 "/></g></g></g><g fill="#000000" fill-opacity="1"><g transform="translate(216.836643, 265.315939)"><g><path d="M 9.015625 -13.328125 C 8.023438 -13.753906 7.035156 -13.96875 6.046875 -13.96875 C 4.054688 -13.96875 3.0625 -13.234375 3.0625 -11.765625 C 3.0625 -11.117188 3.285156 -10.519531 3.734375 -9.96875 C 4.191406 -9.414062 4.738281 -8.925781 5.375 -8.5 C 6.019531 -8.070312 6.660156 -7.628906 7.296875 -7.171875 C 7.941406 -6.722656 8.488281 -6.1875 8.9375 -5.5625 C 9.382812 -4.9375 9.609375 -4.253906 9.609375 -3.515625 C 9.609375 -2.273438 9.191406 -1.335938 8.359375 -0.703125 C 7.535156 -0.0664062 6.390625 0.25 4.921875 0.25 C 3.453125 0.25 2.203125 -0.125 1.171875 -0.875 L 1.65625 -1.609375 C 2.632812 -0.972656 3.707031 -0.65625 4.875 -0.65625 C 6.050781 -0.65625 6.953125 -0.890625 7.578125 -1.359375 C 8.210938 -1.828125 8.53125 -2.503906 8.53125 -3.390625 C 8.53125 -4.003906 8.300781 -4.585938 7.84375 -5.140625 C 7.394531 -5.691406 6.847656 -6.1875 6.203125 -6.625 C 5.566406 -7.070312 4.925781 -7.523438 4.28125 -7.984375 C 3.644531 -8.453125 3.101562 -9.003906 2.65625 -9.640625 C 2.207031 -10.285156 1.984375 -10.976562 1.984375 -11.71875 C 1.984375 -12.6875 2.335938 -13.453125 3.046875 -14.015625 C 3.765625 -14.585938 4.734375 -14.875 5.953125 -14.875 C 7.179688 -14.875 8.320312 -14.628906 9.375 -14.140625 Z M 9.015625 -13.328125 "/></g></g></g><g fill="#000000" fill-opacity="1"><g transform="translate(235.918418, 265.315939)"><g><path d="M 2.703125 0 L 2.703125 -14.625 L 3.6875 -14.625 L 3.6875 0 Z M 2.703125 0 "/></g></g></g><g fill="#000000" fill-opacity="1"><g transform="translate(250.194636, 265.315939)"><g><path d="M 2.703125 0 L 2.703125 -14.546875 C 3.828125 -14.648438 4.925781 -14.703125 6 -14.703125 C 7.425781 -14.703125 8.570312 -14.367188 9.4375 -13.703125 C 10.300781 -13.035156 10.734375 -12.03125 10.734375 -10.6875 C 10.734375 -9.34375 10.144531 -8.238281 8.96875 -7.375 C 7.789062 -6.507812 6.382812 -6.078125 4.75 -6.078125 C 4.675781 -6.078125 4.597656 -6.078125 4.515625 -6.078125 L 4.515625 -6.75 C 4.578125 -6.75 4.625 -6.75 4.65625 -6.75 C 6.007812 -6.75 7.179688 -7.101562 8.171875 -7.8125 C 9.171875 -8.519531 9.671875 -9.441406 9.671875 -10.578125 C 9.671875 -11.722656 9.320312 -12.550781 8.625 -13.0625 C 7.9375 -13.570312 7.003906 -13.828125 5.828125 -13.828125 C 5.210938 -13.828125 4.5 -13.800781 3.6875 -13.75 L 3.6875 0 Z M 2.703125 0 "/></g></g></g><g fill="#000000" fill-opacity="1"><g transform="translate(269.971673, 265.315939)"><g><path d="M 2.703125 0 L 2.703125 -14.625 L 9.484375 -14.625 L 9.484375 -13.765625 L 3.6875 -13.765625 L 3.6875 -8.390625 L 8.9375 -8.390625 L 8.9375 -7.546875 L 3.6875 -7.546875 L 3.6875 -0.859375 L 9.71875 -0.859375 L 9.71875 0 Z M 2.703125 0 "/></g></g></g></svg>